<?xml version="1.0" standalone="no"?>
<!DOCTYPE svg PUBLIC "-//W3C//DTD SVG 20010904//EN"
 "http://www.w3.org/TR/2001/REC-SVG-20010904/DTD/svg10.dtd">
<svg version="1.0" xmlns="http://www.w3.org/2000/svg"
 width="500.000000pt" height="500.000000pt" viewBox="0 0 500.000000 500.000000"
 preserveAspectRatio="xMidYMid meet">

<g transform="translate(0.000000,500.000000) scale(0.100000,-0.100000)"
fill="#000000" stroke="none">
<path d="M2135 4398 c-30 -16 -43 -37 -38 -58 7 -27 24 -24 48 8 15 21 15 24
2 13 -15 -12 -17 -11 -17 2 0 9 10 23 22 31 25 18 13 21 -17 4z"/>
<path d="M1778 4383 c6 -2 18 -2 25 0 6 3 1 5 -13 5 -14 0 -19 -2 -12 -5z"/>
<path d="M2265 4380 c-4 -7 -16 -9 -28 -6 -25 6 -52 -7 -61 -31 -6 -14 -2 -13
17 5 30 29 36 28 32 -6 -3 -21 2 -30 21 -39 20 -9 24 -9 25 5 0 10 6 -1 13
-23 11 -37 11 -41 -8 -52 -26 -15 -76 -16 -96 -2 -11 8 -3 9 33 5 30 -4 46 -2
42 4 -3 6 -21 10 -38 10 -18 1 -50 7 -72 15 -62 23 -81 19 -105 -20 -28 -45
-21 -77 24 -104 33 -21 62 -28 53 -13 -3 4 42 5 99 4 99 -4 105 -3 123 20 14
17 16 26 9 36 -8 9 -7 11 6 6 13 -5 19 0 23 17 4 13 5 26 4 28 -2 2 3 7 10 11
6 5 9 15 6 25 -4 9 -11 14 -16 10 -6 -3 -8 4 -6 15 4 18 -3 23 -30 22 -5 -1
-19 13 -30 30 -22 35 -40 45 -50 28z"/>
<path d="M2535 4370 c-18 -8 -17 -9 8 -9 15 -1 50 -12 77 -26 27 -14 52 -25
55 -25 13 0 -53 50 -79 60 -31 12 -34 12 -61 0z"/>
<path d="M2725 4350 c3 -5 14 -10 23 -10 15 0 15 2 2 10 -20 13 -33 13 -25 0z"/>
<path d="M2458 4343 c7 -3 16 -2 19 1 4 3 -2 6 -13 5 -11 0 -14 -3 -6 -6z"/>
<path d="M2411 4329 c-23 -9 -24 -11 -7 -27 14 -14 18 -15 25 -3 7 10 10 10
13 1 3 -9 8 -9 20 3 8 9 18 13 21 10 4 -3 16 -6 29 -7 17 -1 22 -8 23 -29 1
-16 -4 -31 -11 -34 -15 -5 -20 -33 -6 -33 4 0 16 7 26 15 11 8 26 15 33 15 7
0 21 7 32 17 19 16 19 17 -9 45 -32 32 -53 39 -25 8 11 -12 15 -26 10 -37 -5
-15 -9 -13 -20 14 -15 36 -46 49 -101 40 -20 -4 -32 -2 -29 4 7 11 7 11 -24
-2z"/>
<path d="M2726 4323 c-8 -8 13 -33 28 -33 6 0 25 -9 41 -21 25 -17 26 -19 7
-14 -21 6 -23 5 -13 -13 17 -32 12 -50 -5 -22 -9 14 -34 37 -55 52 -31 22 -39
25 -39 12 0 -11 -5 -14 -16 -10 -22 8 -57 -12 -50 -30 3 -8 2 -13 -3 -10 -8 5
-31 -35 -31 -54 0 -6 15 -10 33 -10 19 0 44 -8 55 -19 27 -23 28 -34 2 -26
-11 3 -20 2 -20 -3 0 -5 -8 -12 -17 -15 -10 -2 -26 -8 -35 -12 -29 -12 -21 11
8 24 43 19 19 25 -32 7 -52 -18 -80 -10 -93 27 -8 21 -9 20 -25 -11 -21 -41
-36 -41 -37 1 0 17 -4 41 -8 51 -7 19 -8 19 -23 -3 -9 -12 -17 -18 -19 -12 -2
6 -9 0 -15 -13 -8 -18 -7 -27 4 -42 14 -18 14 -18 9 5 -4 18 -3 21 5 13 9 -9
8 -18 -2 -37 -9 -16 -10 -29 -5 -33 6 -4 11 -14 13 -22 5 -20 31 -48 51 -54 9
-3 35 -10 58 -16 28 -7 60 -27 94 -60 29 -28 54 -50 56 -50 7 0 3 50 -4 50 -5
1 -23 13 -41 29 l-33 28 31 1 c16 0 31 -5 31 -11 1 -7 4 2 8 18 6 27 8 24 25
-40 11 -38 24 -75 30 -81 6 -7 32 -14 57 -16 43 -5 46 -4 42 16 -2 11 7 -1 21
-29 32 -61 32 -77 3 -110 -16 -19 -35 -28 -67 -31 -25 -3 -52 -8 -60 -11 -8
-4 -21 -5 -27 -4 -7 1 -13 -2 -13 -6 0 -5 -9 -9 -20 -10 -20 -2 -20 -2 0 28
12 16 27 29 34 29 7 0 26 15 44 33 23 24 30 38 26 55 -6 22 -24 31 -24 12 0
-5 -9 -24 -20 -42 l-20 -33 2 48 c0 26 -2 50 -5 54 -4 3 -7 -6 -7 -22 l0 -28
-19 24 c-10 13 -21 34 -25 46 -4 11 -14 27 -23 35 -14 11 -16 11 -8 -1 12 -20
15 -62 4 -55 -5 3 -13 -6 -18 -19 -6 -14 -15 -28 -20 -32 -15 -9 -13 7 4 29
18 24 19 58 3 74 -7 7 -33 12 -59 12 -52 0 -70 13 -42 29 24 14 10 14 -22 -1
-29 -13 -32 -25 -7 -31 14 -4 13 -5 -3 -6 -12 0 -25 -5 -31 -11 -23 -23 -177
-90 -233 -101 -33 -6 -61 -16 -61 -20 0 -5 -4 -9 -10 -9 -20 0 4 31 34 45 19
9 22 13 8 9 -22 -5 -23 -4 -12 15 6 12 8 27 4 33 -4 6 -3 8 3 5 6 -4 13 0 17
8 3 8 1 17 -3 20 -5 2 -11 21 -13 40 -3 29 -1 34 11 29 9 -3 35 -9 59 -11 34
-5 40 -8 31 -19 -9 -11 -5 -14 25 -14 47 0 76 15 76 40 0 10 4 21 9 24 4 3 6
18 3 33 -5 24 -6 25 -12 8 -6 -16 -10 -12 -20 23 -18 59 -36 66 -144 58 -131
-10 -127 -10 -163 31 -23 28 -32 33 -33 21 0 -21 20 -42 82 -84 27 -19 50 -44
56 -63 6 -17 7 -29 2 -26 -4 3 -10 2 -13 -2 -2 -5 -2 -2 -1 5 2 6 -1 12 -6 12
-6 0 -10 -6 -10 -12 0 -7 -5 -5 -11 4 -5 10 -19 23 -30 29 -19 9 -19 9 -10
-10 17 -31 13 -35 -10 -10 -20 24 -20 24 -14 2 3 -13 2 -31 -4 -40 -9 -16 -10
-15 -11 8 0 37 -27 57 -88 65 -44 5 -52 4 -52 -9 0 -10 -12 -18 -34 -22 -34
-7 -84 -45 -103 -79 -9 -16 -11 -17 -16 -2 -9 22 119 157 141 148 10 -3 13 -1
8 6 -5 8 2 12 21 12 l28 1 -27 22 c-70 56 -93 72 -115 75 -22 3 -23 1 -12 -20
11 -21 11 -22 -4 -9 -20 16 -23 1 -4 -18 10 -10 9 -11 -5 -6 -10 4 -18 11 -18
17 0 5 -4 6 -10 3 -6 -3 -7 1 -4 9 3 9 1 16 -4 16 -13 0 -8 50 8 80 11 20 10
21 -12 15 -37 -11 -59 -39 -65 -84 -6 -41 -7 -42 -37 -36 -30 5 -30 5 6 -12
20 -9 39 -24 41 -33 3 -8 8 -24 12 -35 5 -14 4 -16 -2 -7 -6 7 -26 15 -46 18
-29 3 -35 1 -33 -13 3 -17 -27 -53 -45 -53 -5 0 -7 -5 -4 -10 3 -6 17 -7 29
-4 23 5 23 4 16 -34 -4 -23 -3 -48 3 -58 8 -14 7 -16 -7 -11 -10 4 -33 7 -52
7 -24 0 -33 4 -28 11 4 7 -7 1 -25 -12 -65 -48 -78 -99 -36 -146 l24 -28 -19
53 c-11 28 -16 52 -11 52 5 0 11 -9 14 -19 5 -20 78 -61 107 -61 9 0 21 5 27
11 8 8 13 7 18 -2 5 -8 4 -10 -3 -5 -7 4 -12 3 -12 -1 0 -15 -63 -42 -112 -49
-27 -3 -48 -10 -48 -15 0 -6 16 -19 35 -30 19 -12 35 -22 35 -24 0 -9 -53 10
-57 21 -3 8 -9 14 -14 14 -4 0 -6 -7 -3 -15 7 -17 -11 -21 -21 -5 -4 6 -12 4
-22 -6 -12 -11 -13 -18 -4 -27 8 -8 11 -8 11 1 0 7 4 12 10 12 5 0 7 -7 3 -16
-6 -17 25 -94 39 -94 5 0 6 -5 2 -12 -5 -7 -17 1 -35 23 -25 29 -28 31 -29 13
0 -11 6 -28 13 -37 14 -19 67 -28 85 -14 9 7 12 0 13 -29 1 -22 0 -48 -1 -59
-2 -16 1 -17 13 -7 9 8 18 9 21 4 7 -12 -18 -35 -27 -25 -4 3 -7 2 -7 -4 0
-19 25 -32 40 -23 23 14 39 147 22 188 -7 19 -10 43 -6 55 7 20 9 19 17 -13 6
-19 11 -68 13 -108 1 -41 4 -75 6 -77 2 -2 28 5 58 15 42 14 49 19 28 19 -16
1 -28 5 -28 11 0 5 7 7 15 4 9 -4 15 0 15 9 0 11 13 18 38 22 20 3 59 11 86
17 123 27 322 -34 427 -131 24 -23 39 -41 34 -41 -6 0 -3 -5 5 -10 13 -8 12
-10 -5 -11 -39 -3 -60 3 -90 24 -18 13 -3 -9 37 -53 37 -41 68 -82 68 -90 -1
-12 -4 -11 -15 4 -7 10 -18 15 -23 12 -6 -3 -13 1 -16 9 -3 8 -9 14 -13 13
-17 -3 -90 16 -125 33 -21 11 -44 19 -51 19 -8 0 -20 7 -27 15 -7 8 -22 15
-34 15 -11 0 -33 6 -47 14 -41 21 -74 26 -109 16 -23 -7 -38 -6 -47 1 -18 16
-30 -18 -14 -42 9 -16 8 -19 -4 -19 -18 0 -35 38 -35 78 -1 24 -2 22 -15 -12
-9 -26 -11 -46 -4 -63 11 -30 11 -33 1 -33 -12 0 -32 46 -33 73 0 21 -1 21
-10 -3 -6 -14 -8 -45 -5 -70 4 -31 3 -39 -3 -25 -5 11 -10 39 -10 61 -1 56
-28 69 -33 17 -2 -20 -9 -38 -16 -41 -7 -2 -11 2 -10 8 2 7 -3 15 -9 17 -8 3
-13 -4 -13 -16 0 -12 -7 -24 -15 -27 -9 -4 -15 -19 -15 -40 0 -38 17 -47 22
-12 4 33 33 35 33 3 0 -16 -5 -23 -12 -20 -7 2 -13 -2 -13 -10 0 -7 7 -15 15
-17 10 -2 12 -8 5 -17 -7 -12 -11 -12 -24 -2 -14 12 -16 10 -16 -13 0 -24 3
-26 23 -20 22 7 22 6 4 -14 -15 -16 -16 -24 -7 -41 6 -12 14 -21 19 -21 9 0
86 128 96 160 7 23 40 26 80 8 24 -11 34 -28 16 -28 -4 0 -11 -21 -15 -47 -3
-25 -14 -55 -23 -65 -15 -17 -15 -18 1 -18 17 0 38 -38 28 -54 -2 -5 1 -6 9
-4 8 3 13 15 11 26 -4 27 15 28 46 3 22 -19 31 -38 12 -26 -17 10 -11 -13 19
-78 17 -37 56 -91 95 -134 62 -67 69 -81 75 -140 0 -7 9 -13 19 -13 14 0 15
-2 2 -10 -13 -8 -11 -11 8 -16 15 -4 22 -14 22 -30 0 -26 16 -41 24 -22 3 9
11 6 25 -11 12 -13 21 -20 21 -16 0 5 8 1 18 -8 15 -13 21 -14 32 -4 12 10 12
9 0 -6 -7 -10 -19 -16 -26 -13 -8 3 -11 0 -7 -10 3 -8 -1 -14 -8 -15 -8 0 -22
-2 -31 -4 -21 -4 -22 0 -9 24 12 22 -1 44 -29 48 -17 2 -21 -1 -18 -14 4 -15
-2 -18 -31 -18 -21 0 -36 5 -37 13 -1 6 -2 17 -3 23 0 5 -5 7 -11 4 -5 -3 -10
0 -10 8 0 7 -14 26 -31 43 -17 16 -45 54 -63 84 -26 46 -31 65 -31 120 0 54
-3 66 -20 75 -14 7 -19 18 -17 38 2 16 -2 27 -8 27 -7 0 -10 -6 -7 -14 3 -8 0
-17 -8 -19 -7 -3 -15 3 -18 14 -3 12 -17 22 -37 25 -22 5 -28 9 -18 15 10 7 9
9 -4 9 -9 0 -19 -6 -21 -12 -3 -7 -6 -4 -6 8 -1 11 4 25 10 31 8 8 6 14 -9 22
-18 10 -20 8 -17 -14 2 -25 -9 -40 -30 -40 -5 0 -12 -11 -13 -24 -3 -19 -6
-21 -13 -10 -7 11 -9 10 -10 -6 -3 -47 -7 -62 -18 -84 -16 -29 -9 -36 20 -20
43 23 115 10 156 -28 11 -10 5 -12 -29 -12 -62 1 -122 -23 -126 -50 -3 -20 -1
-21 51 -15 31 4 71 4 91 0 38 -7 42 -12 131 -153 73 -115 135 -193 155 -193
10 0 22 -5 26 -11 3 -6 17 -9 30 -6 13 2 24 1 24 -3 0 -3 13 -5 29 -2 22 3 37
-4 71 -37 24 -23 46 -39 48 -36 3 3 1 5 -3 5 -10 0 27 29 38 30 4 0 7 -7 7
-15 0 -8 -4 -15 -10 -15 -5 0 -10 -8 -10 -17 0 -15 2 -14 15 3 8 10 15 27 15
37 0 9 4 17 10 17 5 0 9 -16 8 -35 -1 -19 -5 -32 -10 -29 -5 3 -16 0 -24 -7
-13 -10 -17 -10 -25 2 -6 10 -9 8 -9 -12 0 -14 5 -30 12 -37 7 -7 9 -12 4 -12
-4 0 -14 7 -23 16 -9 8 -22 13 -30 10 -8 -4 -28 3 -44 15 -22 16 -29 17 -29 6
0 -9 -10 -14 -25 -14 -13 0 -22 3 -19 8 3 5 -12 9 -33 9 -43 1 -83 29 -107 75
-11 21 -16 24 -16 12 0 -15 -5 -13 -25 11 -14 17 -25 37 -25 47 0 9 -4 14 -9
10 -5 -3 -13 0 -17 6 -4 8 -9 7 -15 -2 -7 -11 -9 -11 -9 1 0 13 -1 13 -10 0
-8 -13 -10 -12 -15 1 -4 11 -15 14 -35 11 -40 -6 -39 11 6 64 38 48 51 95 36
134 -9 25 -11 25 -120 25 -77 -1 -115 -5 -126 -14 -11 -9 -33 -12 -66 -9 -47
5 -51 3 -56 -19 -10 -40 23 -65 85 -65 56 1 63 -4 64 -53 0 -19 5 -32 9 -29
11 7 10 -84 -2 -106 -6 -12 -17 -16 -30 -13 -17 5 -20 0 -20 -31 0 -38 20 -59
73 -71 29 -8 35 -31 16 -67 -7 -12 -7 -23 -2 -27 5 -3 12 -14 16 -24 5 -13 0
-20 -18 -27 -22 -8 -25 -14 -20 -41 3 -18 8 -36 10 -40 3 -4 -1 -22 -9 -40
-13 -30 -14 -31 -21 -11 -8 27 -24 20 -25 -11 -2 -76 1 -111 11 -124 9 -10 9
-17 1 -25 -19 -19 -13 -40 26 -92 20 -27 42 -56 47 -64 27 -43 44 -48 139 -44
50 2 113 4 139 3 30 -1 58 4 73 13 13 9 40 16 61 16 l38 -1 36 -107 c20 -59
40 -116 44 -127 4 -11 -2 -6 -12 10 -11 17 -34 72 -53 123 -18 50 -37 92 -41
92 -5 0 -9 -4 -9 -8 0 -5 -25 -42 -56 -83 -32 -41 -65 -92 -75 -114 -18 -38
-19 -39 -19 -12 0 16 18 63 40 104 22 42 38 78 36 81 -3 2 -20 -5 -39 -17 -19
-11 -41 -21 -49 -21 -9 0 -21 -6 -28 -14 -11 -14 -39 -11 -50 5 -13 19 -35
-12 -34 -50 l1 -39 -24 29 c-14 16 -28 27 -32 24 -4 -2 -18 14 -32 35 -15 25
-36 44 -57 51 -43 14 -51 5 -24 -24 26 -28 27 -40 6 -62 -15 -14 -14 -18 10
-50 28 -36 33 -51 14 -39 -7 4 -2 -6 10 -23 16 -23 18 -33 10 -41 -14 -14 -35
-16 -40 -4 -5 11 -91 72 -96 67 -2 -2 3 -18 11 -35 l16 -30 -28 22 c-16 13
-38 38 -50 56 -39 60 -56 16 -20 -53 29 -55 126 -200 144 -215 8 -7 15 -17 15
-23 0 -17 -150 136 -182 186 -29 46 -48 59 -48 35 0 -7 14 -52 31 -102 l31
-89 -21 -16 -21 -16 29 -45 c77 -120 349 -328 536 -411 143 -63 317 -95 479
-86 133 7 247 37 431 112 72 29 155 58 186 63 81 15 145 42 252 106 233 139
508 387 677 611 65 85 128 213 136 276 6 43 3 51 -30 94 -20 27 -37 44 -37 39
-1 -5 -4 4 -8 20 -3 16 -13 32 -21 36 -8 4 -39 22 -69 39 -30 18 -72 33 -97
36 -33 3 -52 12 -78 38 -37 37 -109 67 -163 67 -18 0 -51 -7 -74 -16 l-40 -17
-42 41 c-37 36 -48 41 -98 44 -48 3 -59 8 -85 37 -22 24 -39 33 -68 36 -22 2
-48 12 -58 22 -18 18 -17 20 22 73 22 29 40 63 40 75 0 12 10 31 23 43 47 45
56 58 54 80 -1 12 -5 22 -9 22 -17 0 -6 22 24 49 25 22 33 39 37 77 5 44 9 49
38 57 17 5 34 16 37 24 5 11 2 11 -16 -2 -32 -22 -46 -19 -20 5 12 12 22 27
22 35 0 8 7 15 15 15 8 0 15 7 15 15 0 9 6 18 14 21 20 8 57 89 50 108 -3 9 4
32 16 52 11 21 18 40 13 43 -11 8 -13 41 -2 41 5 0 9 12 9 26 0 22 -2 24 -14
15 -13 -11 -13 -7 -5 22 6 23 6 44 -1 62 -10 26 -9 27 6 14 16 -13 16 -10 10
36 -5 28 -13 53 -19 57 -7 4 -11 28 -10 58 2 34 -2 53 -11 56 -17 6 -18 18
-17 145 0 87 -3 113 -19 145 -11 21 -20 56 -20 77 0 32 -7 46 -40 78 -22 22
-40 46 -40 53 0 8 -9 24 -21 37 -11 13 -18 18 -14 11 11 -21 -44 -6 -71 19
-15 14 -30 20 -45 16 -11 -3 -18 -3 -15 0 3 4 -1 15 -11 25 -15 17 -15 18 6
18 12 0 37 -7 56 -14 48 -20 44 -13 -10 18 -25 15 -45 33 -45 40 0 7 -9 24
-19 38 -21 26 -67 34 -124 22 l-27 -6 21 -17 c19 -15 36 -71 22 -71 -10 0
-103 63 -103 70 0 4 -20 4 -44 0 l-44 -6 17 30 c25 45 111 97 111 67 0 -6 -8
-11 -17 -11 -28 0 -1 -19 37 -26 l35 -7 -30 33 c-28 30 -33 31 -80 26 -27 -4
-58 -7 -67 -7 -11 0 -18 -10 -20 -27 -2 -16 -8 -26 -16 -24 -8 1 -11 -1 -8 -6
8 -13 -11 -35 -23 -28 -14 9 4 46 22 46 18 0 16 43 -2 58 -14 11 -14 11 2 6
12 -4 17 -1 17 12 0 23 -14 46 -26 43 -20 -3 -45 1 -41 9 6 8 -58 13 -67 5z
m230 -213 c9 0 13 -4 10 -9 -3 -5 1 -14 9 -21 21 -18 19 -40 -4 -35 -14 3 -18
-1 -14 -16 7 -26 -18 -25 -42 1 -10 11 -23 20 -29 20 -6 0 -3 -5 7 -11 23 -13
22 -25 -4 -32 -14 -4 -18 -10 -13 -18 5 -9 2 -10 -10 -6 -9 4 -14 3 -11 -2 10
-16 -15 -23 -32 -9 -14 11 -16 11 -8 -1 13 -22 -41 -6 -98 29 -27 17 -53 30
-59 30 -6 0 -3 11 6 25 9 14 14 30 11 35 -3 6 -2 10 2 10 13 0 33 -38 27 -53
-4 -10 7 -14 43 -16 26 -1 50 -6 54 -12 3 -6 9 -10 13 -10 3 0 13 -2 21 -6 9
-3 19 -3 22 1 4 3 1 6 -7 6 -10 0 -10 4 1 17 10 12 11 15 1 9 -7 -4 -19 -3
-26 3 -8 7 -20 10 -27 9 -7 -2 -15 5 -17 15 -2 11 2 17 15 16 10 0 13 -3 6 -6
-22 -8 -14 -21 10 -16 62 14 88 26 83 38 -5 15 12 26 32 19 8 -2 20 -4 28 -4z
m154 -21 c0 -5 6 -7 13 -3 9 5 9 4 0 -6 -13 -14 -43 -7 -43 10 0 5 7 10 15 10
8 0 15 -5 15 -11z m63 -16 c-7 -2 -19 -2 -25 0 -7 3 -2 5 12 5 14 0 19 -2 13
-5z m-891 -54 c-7 -11 -10 -25 -6 -32 5 -8 4 -9 -3 -2 -6 6 -9 25 -6 43 4 24
8 31 16 23 9 -9 8 -17 -1 -32z m-380 -21 c-33 -13 -43 -10 -30 11 9 15 15 17
30 8 17 -11 17 -12 0 -19z m1161 -34 l-28 -12 33 -1 c21 -1 43 -11 64 -31 38
-36 51 -40 18 -5 -42 44 -35 63 18 49 18 -5 20 -9 11 -20 -6 -8 -9 -24 -6 -36
3 -13 -1 -36 -9 -53 -7 -16 -11 -20 -9 -9 4 14 0 24 -10 28 -9 3 -15 0 -15
-10 0 -39 -84 -111 -107 -93 -13 11 -33 4 -33 -11 0 -5 8 -6 18 -3 16 6 16 6
0 -10 -9 -9 -29 -22 -45 -27 l-28 -10 25 20 c20 16 21 19 5 13 -14 -4 -10 2
11 20 18 15 38 27 45 27 21 0 89 67 89 87 0 35 -38 63 -83 63 -13 0 -32 9 -41
19 -17 18 -16 19 23 17 22 -1 38 1 35 5 -7 12 20 17 34 6 10 -8 7 -13 -15 -23z
m174 11 c36 -24 27 -39 -9 -18 -18 11 -44 25 -58 31 -24 12 -23 12 9 7 19 -3
45 -12 58 -20z m-507 -7 c8 -13 15 -27 15 -33 1 -5 6 -9 13 -8 6 2 16 -6 22
-16 13 -24 -10 -23 -38 2 -10 9 -22 14 -25 10 -4 -3 -7 0 -7 8 0 8 -3 24 -6
37 -4 12 -2 22 2 22 5 0 16 -10 24 -22z m105 -28 c3 -6 -1 -7 -9 -4 -18 7 -21
14 -7 14 6 0 13 -4 16 -10z m-1022 -100 c18 -10 30 -11 35 -5 5 8 142 17 142
10 0 -1 -10 -10 -22 -21 -19 -15 -20 -16 -9 -1 16 21 12 21 -23 3 -15 -7 -26
-18 -24 -22 6 -19 -42 -14 -88 8 -46 22 -49 26 -51 63 -1 35 0 36 5 10 4 -17
18 -35 35 -45z m-154 -16 c11 -15 18 -30 15 -35 -6 -10 -39 5 -49 21 -13 21
-24 9 -15 -15 12 -31 -8 -34 -33 -5 -22 26 -21 36 1 49 30 18 60 12 81 -15z
m1291 16 c-12 -8 -12 -10 5 -10 18 -1 17 -2 -5 -15 -22 -13 -23 -14 -5 -15 18
-1 18 -2 3 -10 -18 -11 -48 -3 -48 12 0 5 -4 6 -10 3 -5 -3 -10 -2 -10 4 0 15
41 41 65 41 16 0 17 -2 5 -10z m-50 -60 c0 -5 -4 -10 -10 -10 -5 0 -10 5 -10
10 0 6 5 10 10 10 6 0 10 -4 10 -10z m460 -49 c0 -17 -5 -33 -11 -37 -7 -4
-10 2 -8 17 2 13 0 30 -4 37 -5 7 -3 12 7 12 11 0 16 -9 16 -29z m-870 -23 c0
-4 -4 -8 -10 -8 -5 0 -10 -4 -10 -10 0 -5 9 -10 20 -10 11 0 20 -5 20 -10 0
-21 -126 24 -135 49 -3 8 -1 17 5 21 12 8 110 -21 110 -32z m440 17 c-7 -8
-17 -15 -23 -15 -6 0 -2 7 9 15 25 19 30 19 14 0z m376 -14 c-11 -12 -15 -25
-10 -33 6 -10 4 -10 -9 1 -10 7 -30 11 -47 9 -17 -3 -27 -1 -22 4 6 6 68 29
101 37 2 1 -4 -8 -13 -18z m-771 -31 c3 -5 1 -10 -4 -10 -6 0 -11 5 -11 10 0
6 2 10 4 10 3 0 8 -4 11 -10z m885 -18 c0 -17 -37 -48 -47 -39 -3 4 34 52 45
56 1 1 2 -7 2 -17z m-1370 -57 c0 -12 82 -85 95 -85 3 0 22 -16 40 -36 20 -21
39 -33 46 -29 6 4 15 1 20 -6 13 -21 -12 -29 -38 -12 -14 10 -23 11 -23 4 0
-15 -16 -14 -33 4 -8 8 -17 11 -21 8 -3 -4 -6 -2 -6 4 0 16 -178 66 -269 75
-14 2 -26 8 -28 15 -3 8 15 13 59 15 56 3 60 5 30 12 -18 5 -34 12 -37 15 -2
4 26 19 63 33 61 24 68 25 85 11 9 -9 17 -22 17 -28z m1157 16 c10 -16 9 -18
-8 -14 -10 3 -19 12 -19 19 0 20 13 17 27 -5z m-1457 -14 c0 -4 3 -6 8 -3 4 2
23 1 42 -4 31 -7 28 -8 -27 -9 -49 -1 -63 2 -63 13 0 9 9 14 20 13 11 -1 20
-5 20 -10z m60 -51 c0 -2 -7 -6 -15 -10 -8 -3 -15 -1 -15 4 0 6 7 10 15 10 8
0 15 -2 15 -4z m801 -46 c18 -15 20 -18 5 -14 -10 4 -21 2 -25 -5 -9 -14 -50
-23 -72 -16 -23 8 -12 43 15 48 43 9 54 7 77 -13z m519 9 c0 -6 7 -9 15 -5 8
3 15 1 15 -4 0 -6 -2 -10 -4 -10 -2 0 -12 -3 -22 -7 -12 -4 -15 -3 -10 5 4 7
3 12 -3 12 -5 0 -13 -4 -16 -10 -3 -5 -15 -10 -26 -10 -10 0 -19 -7 -19 -15 0
-8 -9 -15 -21 -15 -13 0 -18 4 -13 12 5 8 2 9 -9 5 -10 -3 -17 -3 -17 2 0 4
25 13 55 20 30 7 55 17 55 22 0 5 5 9 10 9 6 0 10 -5 10 -11z m-314 -14 c-3
-8 0 -15 7 -15 7 0 0 -12 -16 -25 -15 -13 -27 -27 -27 -30 1 -27 -1 -35 -10
-30 -5 3 -10 0 -11 -7 0 -7 -7 0 -14 17 -16 37 -6 65 31 87 37 21 48 22 40 3z
m64 -6 c0 -6 6 -9 13 -6 6 2 18 -2 25 -9 10 -12 10 -14 -3 -14 -9 0 -30 -7
-48 -17 -30 -15 -31 -15 -18 0 8 10 9 17 3 17 -6 0 -18 -10 -26 -22 -12 -17
-16 -18 -16 -6 0 8 7 21 15 28 8 7 13 16 10 20 -3 5 1 11 7 13 22 9 38 7 38
-4z m420 -39 c0 -5 -13 -8 -29 -8 -26 1 -28 3 -18 19 8 13 15 15 29 8 10 -5
18 -14 18 -19z m-626 11 c3 -4 16 -6 28 -4 21 4 23 0 26 -47 2 -38 -1 -52 -13
-56 -8 -3 -15 -12 -15 -20 0 -8 -2 -14 -4 -14 -2 0 -13 -3 -23 -6 -12 -4 -14
-3 -6 3 7 5 13 28 14 51 2 32 -2 45 -17 56 -17 13 -20 12 -26 -5 -4 -10 -12
-19 -18 -19 -5 0 -2 16 7 35 16 34 36 45 47 26z m-270 -17 c9 -8 16 -12 16 -8
0 4 9 -1 20 -11 13 -12 37 -18 74 -19 56 -1 64 -14 11 -18 -43 -3 -94 13 -164
49 -6 3 10 23 19 23 5 0 16 -7 24 -16z m482 -29 c-29 -27 -31 -35 -13 -55 10
-12 9 -12 -6 0 -30 23 -8 79 32 80 8 0 4 -10 -13 -25z m-671 -15 c-3 -5 -10
-10 -16 -10 -5 0 -9 5 -9 10 0 6 7 10 16 10 8 0 12 -4 9 -10z m910 -11 c15
-14 -7 -10 -35 7 l-25 15 25 -7 c14 -3 29 -10 35 -15z m-47 -9 c32 -30 27 -36
-25 -33 -27 1 -56 0 -66 -3 -18 -6 -18 -7 -1 -25 9 -11 15 -21 12 -24 -3 -3
-11 1 -18 10 -7 8 -17 15 -22 15 -7 0 -6 -5 1 -13 14 -18 2 -30 -16 -15 -11 8
-12 7 -7 -6 5 -12 2 -15 -10 -10 -11 4 -16 18 -16 45 0 33 3 39 21 39 11 0 18
4 14 9 -3 5 0 13 6 17 9 5 10 0 7 -14 -5 -17 -2 -22 14 -22 10 0 17 4 13 9 -7
12 33 41 55 41 9 0 26 -9 38 -20z m-298 -87 c0 -7 9 -17 20 -23 11 -6 20 -17
20 -25 0 -8 5 -15 12 -15 9 0 9 -3 1 -11 -20 -20 -51 8 -68 63 -8 28 -15 54
-15 57 0 11 29 -35 30 -46z m552 -4 c26 -17 48 -32 48 -34 0 -1 -23 2 -51 6
-27 4 -56 6 -63 3 -17 -7 -29 38 -13 48 19 12 27 10 79 -23z m-62 -59 c-14
-10 -27 -16 -30 -13 -6 6 30 33 44 33 6 0 0 -9 -14 -20z m-1249 -5 c27 -10 67
-38 102 -73 83 -81 91 -105 16 -45 -35 28 -92 65 -127 82 -34 17 -60 36 -57
41 8 13 15 13 66 -5z m862 -22 c-7 -2 -21 -2 -30 0 -10 3 -4 5 12 5 17 0 24
-2 18 -5z m-874 -34 c24 -17 41 -32 39 -34 -1 -2 -32 6 -68 17 -36 11 -72 22
-80 25 -13 4 -13 5 0 13 28 18 67 10 109 -21z m-13 -45 c52 -31 71 -53 23 -29
-18 10 -56 26 -83 36 -49 17 -50 18 -18 18 19 1 53 -10 78 -25z m-6 -30 l45
-25 -40 7 c-22 5 -55 9 -73 9 -37 2 -47 9 -37 24 11 18 58 11 105 -15z m1259
-69 c0 -5 -4 -3 -9 5 -5 8 -9 22 -9 30 0 16 17 -16 18 -35z m-793 12 c-17 -12
-17 -14 -2 -20 9 -4 16 -11 16 -17 0 -6 -7 -4 -16 5 -9 9 -24 14 -33 10 -9 -3
-5 4 9 15 14 11 29 20 34 20 6 0 2 -6 -8 -13z m1048 -3 c3 -8 2 -12 -4 -9 -6
3 -10 10 -10 16 0 14 7 11 14 -7z m-959 -34 c3 -5 1 -10 -4 -10 -6 0 -11 5
-11 10 0 6 2 10 4 10 3 0 8 -4 11 -10z m-399 -26 c24 -14 41 -31 37 -36 -4 -7
-1 -8 8 -2 8 4 24 7 35 6 15 -2 29 7 44 27 22 31 62 42 75 21 4 -6 16 -8 28
-4 20 6 20 6 4 -10 -9 -10 -17 -25 -17 -35 0 -10 -9 -29 -21 -42 -11 -13 -24
-29 -27 -34 -11 -17 -90 -65 -107 -65 -8 0 -15 -7 -15 -15 0 -10 -10 -15 -30
-15 -16 0 -52 -9 -80 -20 -66 -26 -84 -25 -41 1 41 25 61 44 61 58 0 10 13 15
25 9 7 -4 55 65 55 79 0 7 -5 13 -11 13 -6 0 -8 7 -5 16 4 9 -7 2 -23 -15 -16
-17 -37 -31 -47 -31 -14 0 -11 8 17 37 l34 37 -35 -25 c-74 -54 -87 -55 -43
-3 48 56 47 76 -2 38 -41 -31 -119 -56 -150 -48 -13 3 -34 17 -47 32 l-23 26
32 -22 c41 -29 94 -29 130 1 65 54 79 56 139 21z m474 -159 c-7 -8 -19 -15
-27 -15 -10 0 -8 6 8 19 27 22 38 19 19 -4z m-47 -44 c-10 -13 -24 20 -17 40
8 23 8 23 14 -6 3 -16 5 -32 3 -34z m7 -36 c11 -30 55 -43 83 -25 17 10 22 10
31 -2 6 -8 14 -16 19 -16 9 -2 8 -13 -4 -32 -8 -13 -10 -13 -18 0 -8 12 -13
11 -32 -5 l-22 -20 12 24 c13 23 12 23 -27 18 -34 -3 -42 -1 -53 19 -16 31
-25 30 -40 -5 -10 -23 -16 -27 -26 -19 -9 7 -13 7 -13 -1 0 -6 12 -14 27 -17
30 -8 53 -26 53 -43 0 -10 -34 -8 -64 4 -11 5 -21 3 -26 -4 -10 -16 -21 -16
-31 1 -7 10 -9 10 -9 -2 0 -11 -4 -10 -12 4 -10 18 0 33 31 48 3 2 14 19 23
38 14 29 17 31 17 13 1 -13 6 -23 12 -23 6 0 8 7 5 16 -3 8 -2 12 4 9 6 -3 10
-1 10 5 0 13 22 39 33 40 4 0 12 -11 17 -25z m425 15 c-3 -5 -13 -10 -21 -10
-8 0 -12 5 -9 10 3 6 13 10 21 10 8 0 12 -4 9 -10z m-72 -17 c-7 -2 -19 -2
-25 0 -7 3 -2 5 12 5 14 0 19 -2 13 -5z m108 -37 c-17 -20 -96 -48 -126 -44
-47 6 -30 22 40 39 92 22 100 23 86 5z m-454 -88 c-3 -7 -5 -2 -5 12 0 14 2
19 5 13 2 -7 2 -19 0 -25z m133 -24 c6 -6 5 -15 -1 -24 -9 -12 -10 -11 -4 5 6
18 4 18 -15 -3 -20 -21 -35 -23 -87 -6 -7 2 -13 -1 -13 -6 0 -5 -7 -7 -15 -4
-17 7 -16 24 3 39 15 12 119 12 132 -1z m-250 -10 c0 -14 -3 -14 -15 -4 -8 7
-15 14 -15 16 0 2 7 4 15 4 8 0 15 -7 15 -16z m304 -20 c-9 -13 -20 -22 -24
-19 -13 8 13 53 27 48 9 -4 8 -11 -3 -29z m-214 10 c0 -8 -5 -12 -10 -9 -6 4
-8 11 -5 16 9 14 15 11 15 -7z m-88 -21 c31 -15 56 -32 54 -38 -2 -5 -9 -9
-15 -7 -6 1 -11 -3 -11 -9 0 -5 -4 -7 -10 -4 -5 3 -10 1 -10 -5 0 -15 -42 -2
-53 16 -4 8 -13 14 -19 14 -7 0 -6 -6 2 -15 7 -9 10 -18 6 -22 -3 -3 -6 -2 -6
4 0 8 -7 8 -24 0 -43 -21 -52 -97 -11 -97 7 0 12 -6 13 -12 0 -7 3 -23 6 -35
2 -13 1 -24 -5 -24 -5 -1 -14 -2 -21 -3 -18 -2 -55 37 -50 52 2 6 -1 12 -8 12
-7 0 -9 8 -5 20 7 23 -13 28 -21 5 -4 -8 -12 -15 -20 -15 -8 0 -14 -5 -14 -10
0 -16 -52 -6 -63 12 -6 8 -7 27 -3 42 5 22 11 27 26 22 11 -3 30 -9 42 -13 13
-4 19 -2 15 4 -4 6 4 14 18 17 14 4 25 11 25 17 0 20 20 -3 21 -24 0 -21 1
-21 10 2 5 14 8 30 6 35 -5 13 18 38 26 29 3 -3 3 -12 1 -21 -4 -14 -3 -13 6
1 9 14 9 22 -1 33 -10 12 -8 17 7 29 25 19 21 20 86 -12z m302 -87 c-6 -16
-24 -23 -24 -8 0 10 22 33 27 28 2 -2 1 -11 -3 -20z m-120 -2 c20 -3 36 -10
36 -15 0 -19 -2 -24 -11 -21 -5 1 -9 -2 -9 -8 0 -16 -21 -12 -37 8 -9 10 -11
11 -7 2 6 -11 2 -10 -13 3 -11 9 -25 17 -32 17 -9 0 -9 4 1 15 7 8 18 12 25
10 6 -2 28 -7 47 -11z m-101 -36 c21 1 14 -14 -15 -29 -16 -9 -19 -8 -13 2 6
9 3 11 -8 6 -9 -3 -26 2 -39 14 l-23 19 40 -7 c22 -3 48 -6 58 -5z m164 -20
c-3 -8 -6 -5 -6 6 -1 11 2 17 5 13 3 -3 4 -12 1 -19z m488 -37 c3 -5 1 -12 -5
-16 -5 -3 -10 1 -10 9 0 18 6 21 15 7z m-456 -42 c-27 -17 -41 -9 -18 10 14
11 26 15 28 9 2 -6 -3 -14 -10 -19z m-499 -9 c8 -16 8 -18 -4 -14 -17 6 -30
34 -16 34 5 0 14 -9 20 -20z m38 4 c14 -15 14 -16 -3 -13 -10 2 -20 10 -23 17
-5 17 6 15 26 -4z m384 7 c15 -2 40 -51 34 -66 -4 -13 -9 -13 -25 -3 -11 7
-17 16 -15 20 3 5 2 8 -3 7 -4 -1 -18 -1 -30 0 -26 1 -32 21 -7 21 14 0 14 3
4 15 -11 13 -9 15 11 11 13 -3 27 -5 31 -5z m-145 -7 c-3 -4 -2 -16 4 -27 7
-13 7 -17 1 -13 -6 3 -13 2 -17 -4 -7 -11 -75 -14 -75 -3 0 13 55 52 74 53 11
0 16 -3 13 -6z m278 -34 c-4 -12 -9 -19 -12 -17 -3 3 -2 15 2 27 4 12 9 19 12
17 3 -3 2 -15 -2 -27z m-443 -45 c-2 -14 -6 -25 -8 -25 -2 0 -4 11 -4 25 0 14
4 25 9 25 4 0 6 -11 3 -25z m307 -2 c3 -2 -8 -2 -22 -1 -27 2 -33 9 -20 21 3
4 13 1 22 -5 9 -7 18 -14 20 -15z m-99 -20 c0 -12 -3 -13 -13 -4 -8 6 -18 7
-23 3 -4 -4 -2 1 5 10 15 20 31 15 31 -9z m-880 2 c-7 -8 -10 -22 -6 -30 3 -9
-3 -25 -13 -37 -20 -21 -21 -14 -7 32 9 26 25 50 33 50 3 0 0 -7 -7 -15z
m1480 -11 c0 -21 -19 -54 -31 -54 -6 0 -5 9 2 23 7 12 12 23 11 25 -6 8 0 22
8 22 6 0 10 -7 10 -16z m-710 -35 l25 -1 -28 -10 c-21 -8 -33 -6 -51 6 -23 14
-24 14 -19 -7 4 -18 3 -19 -6 -7 -6 8 -11 25 -11 37 l0 23 33 -20 c17 -11 43
-20 57 -21z m-187 17 c3 -8 3 -17 0 -20 -9 -9 -34 15 -27 25 8 13 21 11 27 -5z
m51 -59 c17 -12 16 -14 -8 -25 -27 -12 -40 -3 -30 22 7 19 15 20 38 3z m104
-27 c-15 -24 -52 -44 -70 -37 -7 3 -4 6 8 6 14 1 26 11 34 30 7 18 17 28 25
24 11 -4 12 -9 3 -23z m-264 3 c-3 9 -1 17 5 17 21 0 11 -31 -14 -42 -20 -9
-28 -9 -38 1 -9 10 -8 15 7 26 17 13 21 12 33 -3 12 -16 13 -16 7 1z m972 -17
c-9 -14 -16 -45 -16 -68 0 -24 -3 -60 -6 -80 -5 -29 -9 -34 -19 -25 -19 19 -5
175 14 162 5 -2 13 7 20 22 6 14 14 23 18 20 3 -4 -2 -18 -11 -31z m-871 -3
c16 -57 12 -68 -26 -71 -42 -4 -64 17 -56 50 6 21 36 44 63 47 7 0 15 -11 19
-26z m192 10 c-4 -3 -1 -13 6 -22 11 -14 10 -14 -5 -2 -16 12 -16 31 -1 31 4
0 3 -3 0 -7z m-609 -43 c17 -11 32 -23 31 -27 -4 -22 3 -23 21 -2 l20 24 -6
-31 c-4 -19 0 -43 10 -62 20 -39 20 -86 0 -106 -17 -18 -39 -22 -29 -6 7 12
-37 4 -67 -12 -11 -5 -18 -5 -18 1 0 5 9 12 20 16 21 7 60 55 60 74 0 8 -6 9
-17 3 -10 -5 -24 -7 -31 -5 -7 3 -19 -1 -27 -7 -11 -9 -15 -10 -15 -1 0 7 -4
9 -10 6 -5 -3 -10 1 -10 10 0 9 -5 13 -10 10 -6 -3 -13 1 -16 9 -3 9 -15 16
-25 16 -28 0 -25 51 4 77 41 38 69 41 115 13z m512 -11 c0 -5 6 -9 14 -9 8 0
16 -7 20 -15 3 -8 1 -15 -4 -15 -6 0 -10 5 -10 10 0 6 -11 10 -25 10 -14 0
-25 2 -25 4 0 2 -3 11 -6 19 -4 12 0 14 15 10 12 -3 21 -9 21 -14z m90 11 c0
-5 -10 -10 -22 -9 -22 0 -22 1 -3 9 11 5 21 9 23 9 1 1 2 -3 2 -9z m-790 -14
c0 -2 -7 -7 -16 -10 -8 -3 -12 -2 -9 4 6 10 25 14 25 6z m850 -37 c11 -7 12
-12 3 -15 -7 -3 -9 -13 -6 -21 5 -13 2 -15 -11 -10 -11 5 -15 3 -10 -5 5 -8 2
-9 -10 -5 -10 4 -25 7 -34 7 -12 0 -8 8 13 30 32 33 34 34 55 19z m500 -102
c-6 -22 -15 -35 -22 -31 -6 4 -6 9 -1 13 5 3 10 17 10 31 1 14 5 41 10 60 l7
35 4 -35 c2 -19 -1 -52 -8 -73z m-1000 83 c0 -5 7 -10 15 -10 16 0 40 -38 30
-48 -3 -3 -18 -8 -33 -9 -15 -2 -22 0 -17 4 13 10 13 22 -3 51 -8 14 -9 22 -2
22 5 0 10 -4 10 -10z m76 -47 c-7 -7 -26 7 -26 19 0 6 6 6 15 -2 9 -7 13 -15
11 -17z m275 15 c29 -16 27 -53 -3 -61 -17 -5 -19 -2 -15 21 4 22 3 24 -6 11
-18 -23 -48 -32 -40 -12 4 11 2 14 -5 9 -22 -13 -12 13 10 28 27 19 29 19 59
4z m-654 -28 c2 -28 -16 -35 -32 -14 -16 22 -11 34 13 34 11 0 18 -8 19 -20z
m476 1 c14 -2 7 -30 -10 -39 -26 -13 -43 -4 -43 24 0 19 4 23 23 20 12 -3 25
-5 30 -5z m68 -44 c-8 -8 -11 -5 -11 9 0 27 14 41 18 19 2 -9 -1 -22 -7 -28z
m-591 18 c0 -12 -19 -12 -23 0 -4 9 -1 12 9 8 7 -3 14 -7 14 -8z m1417 -37
c-3 -7 -5 -2 -5 12 0 14 2 19 5 13 2 -7 2 -19 0 -25z m-1493 -10 c-5 -61 -6
-63 -13 -33 -4 17 -4 38 1 48 13 25 16 21 12 -15z m121 2 c-5 -8 -11 -8 -17
-2 -6 6 -7 16 -3 22 5 8 11 8 17 2 6 -6 7 -16 3 -22z m325 -24 c0 -2 -8 -10
-17 -17 -16 -13 -17 -12 -4 4 13 16 21 21 21 13z m135 -26 c3 -6 -1 -7 -9 -4
-18 7 -21 14 -7 14 6 0 13 -4 16 -10z m1405 -13 c0 -1 -30 -32 -67 -67 l-68
-65 65 68 c60 62 70 72 70 64z m-1660 -16 c0 -6 -11 -23 -25 -38 l-24 -28 -1
26 c0 17 8 30 23 37 28 14 27 14 27 3z m-151 -38 c-13 -15 -33 -18 -24 -3 3 6
1 10 -4 10 -6 0 -11 7 -11 15 0 12 4 13 25 3 19 -9 22 -14 14 -25z m1881 -36
c0 -2 -19 -21 -42 -42 l-43 -40 40 43 c36 39 45 47 45 39z m-1435 -148 c20
-39 34 -73 32 -75 -5 -5 -77 120 -77 134 0 23 9 11 45 -59z m1315 16 c-24 -25
-46 -45 -49 -45 -3 0 15 20 39 45 24 25 46 45 49 45 3 0 -15 -20 -39 -45z
m-50 -59 c0 -2 -8 -10 -17 -17 -16 -13 -17 -12 -4 4 13 16 21 21 21 13z m-370
-50 c0 -2 -8 -10 -17 -17 -16 -13 -17 -12 -4 4 13 16 21 21 21 13z m-415 -60
c8 -7 10 -17 5 -22 -11 -13 -19 -143 -9 -150 17 -10 10 -45 -8 -42 -10 2 -17
-3 -15 -9 1 -7 -3 -13 -9 -13 -7 0 -8 18 -4 53 3 28 7 70 9 92 2 22 7 48 11
58 4 9 5 24 1 32 -7 19 1 19 19 1z m-980 -66 c21 -22 37 -40 34 -40 -3 0 -23
18 -44 40 -21 22 -37 40 -34 40 3 0 23 -18 44 -40z m905 -205 c0 -2 -10 -9
-22 -15 -22 -11 -22 -10 -4 4 21 17 26 19 26 11z m-310 -58 c0 -33 -26 -67
-50 -66 -14 0 -19 3 -12 6 6 2 12 9 12 14 0 15 31 59 41 59 5 0 9 -6 9 -13z"/>
<path d="M2738 4013 c7 -3 16 -2 19 1 4 3 -2 6 -13 5 -11 0 -14 -3 -6 -6z"/>
<path d="M2115 3500 c3 -5 8 -10 11 -10 2 0 4 5 4 10 0 6 -5 10 -11 10 -5 0
-7 -4 -4 -10z"/>
<path d="M2925 3350 c3 -5 8 -10 11 -10 2 0 4 5 4 10 0 6 -5 10 -11 10 -5 0
-7 -4 -4 -10z"/>
<path d="M2410 2559 c0 -5 5 -7 10 -4 6 3 10 8 10 11 0 2 -4 4 -10 4 -5 0 -10
-5 -10 -11z"/>
<path d="M2210 2430 c0 -5 5 -10 11 -10 5 0 7 5 4 10 -3 6 -8 10 -11 10 -2 0
-4 -4 -4 -10z"/>
<path d="M2261 2414 c0 -11 3 -14 6 -6 3 7 2 16 -1 19 -3 4 -6 -2 -5 -13z"/>
<path d="M1799 4294 c-13 -16 24 -38 53 -31 15 4 18 2 12 -11 -4 -9 -9 -30
-12 -45 -3 -21 -9 -27 -21 -22 -11 5 -10 1 4 -13 16 -15 25 -17 48 -9 15 5 33
7 40 4 9 -3 12 11 11 52 -1 37 -5 55 -13 53 -6 -1 -14 5 -17 13 -4 8 -10 15
-16 15 -5 0 -6 -6 -2 -12 6 -10 4 -10 -7 -2 -23 18 -68 23 -80 8z"/>
<path d="M2938 4153 c7 -3 16 -2 19 1 4 3 -2 6 -13 5 -11 0 -14 -3 -6 -6z"/>
<path d="M1513 4108 c-4 -7 -19 -13 -33 -13 -22 0 -25 -5 -28 -39 -2 -27 0
-37 9 -34 7 2 15 10 17 18 3 8 0 10 -8 5 -9 -5 -11 -4 -6 4 4 6 21 18 37 26
16 9 27 20 24 25 -3 5 7 11 22 13 l28 4 -27 2 c-15 0 -31 -5 -35 -11z"/>
<path d="M1980 4066 c0 -2 7 -6 15 -10 8 -3 15 -1 15 4 0 6 -7 10 -15 10 -8 0
-15 -2 -15 -4z"/>
<path d="M1435 3989 c-4 -6 -5 -12 -2 -15 2 -3 7 2 10 11 7 17 1 20 -8 4z"/>
<path d="M1467 3963 c-15 -14 -6 -23 23 -23 17 0 30 5 30 11 0 6 -7 9 -15 5
-8 -3 -15 -1 -15 4 0 11 -13 13 -23 3z"/>
<path d="M2367 3913 c-4 -3 -22 -6 -40 -5 -17 1 -39 -3 -47 -8 -25 -16 62 -11
90 5 14 8 20 14 14 15 -6 0 -14 -3 -17 -7z"/>
<path d="M2759 3723 c-13 -16 -12 -17 4 -4 16 13 21 21 13 21 -2 0 -10 -8 -17
-17z"/>
<path d="M3525 3451 c11 -22 15 -46 11 -70 -6 -34 -5 -35 9 -17 22 28 19 57
-11 91 l-25 30 16 -34z"/>
<path d="M1696 3435 c-3 -8 -13 -15 -23 -15 -15 0 -15 -2 -3 -9 8 -6 19 -7 24
-3 6 3 40 12 76 18 l65 13 -55 -2 c-30 -1 -60 2 -66 6 -7 4 -14 0 -18 -8z"/>
<path d="M1575 3390 c-13 -6 -15 -9 -5 -9 8 0 22 4 30 9 18 12 2 12 -25 0z"/>
<path d="M2097 2473 c-4 -3 -7 -11 -7 -17 0 -6 5 -5 12 2 6 6 9 14 7 17 -3 3
-9 2 -12 -2z"/>
<path d="M2180 2265 c7 -9 15 -13 17 -11 7 7 -7 26 -19 26 -6 0 -6 -6 2 -15z"/>
<path d="M1616 2083 c-6 -14 -5 -15 5 -6 7 7 10 15 7 18 -3 3 -9 -2 -12 -12z"/>
</g>
</svg>
