<?xml version="1.0" standalone="no"?>
<!DOCTYPE svg PUBLIC "-//W3C//DTD SVG 20010904//EN"
 "http://www.w3.org/TR/2001/REC-SVG-20010904/DTD/svg10.dtd">
<svg version="1.0" xmlns="http://www.w3.org/2000/svg"
 width="500.000000pt" height="500.000000pt" viewBox="0 0 500.000000 500.000000"
 preserveAspectRatio="xMidYMid meet">

<g transform="translate(0.000000,500.000000) scale(0.100000,-0.100000)"
fill="#000000" stroke="none">
<path d="M2435 4211 c-3 -5 -22 -8 -43 -5 -31 3 -33 2 -12 -5 19 -7 21 -9 6
-10 -57 -3 -125 -91 -111 -145 5 -18 4 -17 -9 4 -24 40 -19 69 18 106 l34 34
-43 0 c-48 0 -65 -13 -38 -29 14 -8 6 -9 -29 -5 -30 3 -48 1 -48 -6 0 -5 3 -9
8 -9 24 4 43 -4 53 -22 10 -19 9 -20 -13 -14 -12 4 -25 11 -28 16 -8 12 -66
-6 -63 -19 1 -5 -4 -13 -13 -16 -8 -3 -12 -2 -9 4 9 15 -8 12 -32 -5 -12 -8
-24 -29 -28 -45 -4 -17 -11 -28 -16 -24 -5 3 -10 0 -10 -5 -1 -6 -3 -15 -4
-21 -1 -5 -3 -17 -4 -26 0 -8 -5 -13 -10 -10 -4 3 -5 25 -1 48 9 49 4 61 -14
36 -9 -12 -11 -32 -6 -61 6 -39 4 -44 -11 -40 -9 3 -20 0 -23 -6 -8 -13 -26
-15 -26 -2 0 4 12 25 26 46 l25 38 -23 -8 c-13 -4 -43 -13 -67 -19 -25 -7 -39
-16 -33 -20 6 -4 20 -2 31 4 11 5 27 10 37 10 25 0 -1 -27 -34 -35 -15 -3 -42
-19 -59 -35 -32 -29 -44 -48 -22 -34 6 3 3 -8 -6 -25 -15 -31 -59 -60 -71 -48
-3 3 9 19 28 36 31 30 32 31 7 22 -24 -9 -26 -7 -22 10 3 11 25 36 48 57 l43
38 -28 11 -28 11 -46 -108 c-25 -59 -46 -116 -46 -125 0 -10 -3 -15 -7 -11 -4
4 -19 -15 -33 -41 -14 -27 -59 -97 -100 -157 -128 -185 -120 -167 -91 -205 18
-24 19 -24 62 -7 136 53 190 81 185 98 -5 20 9 34 19 18 12 -19 26 -11 15 9
-25 47 11 53 41 7 l21 -31 -28 30 -27 30 7 -36 c7 -40 -1 -54 -21 -38 -17 15
-16 -1 2 -25 8 -11 15 -24 15 -30 0 -5 -7 -1 -15 10 -14 18 -14 18 -15 -7 0
-15 6 -32 14 -38 20 -17 28 -54 11 -47 -9 3 -12 0 -9 -9 3 -7 15 -16 27 -19
14 -4 18 -9 11 -13 -20 -13 12 -76 48 -96 l33 -19 -19 20 c-10 12 -15 26 -11
32 3 5 8 22 11 36 4 22 3 24 -16 14 -11 -6 -20 -7 -20 -2 0 5 11 14 25 20 14
6 25 18 25 25 0 7 6 22 14 33 14 17 14 16 10 -20 -3 -22 -8 -45 -13 -50 -19
-24 -19 -70 0 -103 10 -18 19 -41 19 -50 0 -13 3 -14 12 -5 22 22 84 14 118
-14 36 -31 33 -45 -5 -20 -29 19 -101 24 -116 9 -13 -13 0 -45 14 -36 6 4 8 0
4 -9 -6 -17 30 -98 43 -98 5 0 6 10 4 23 -2 12 -1 15 2 7 4 -8 10 -17 14 -20
4 -3 13 -18 21 -35 13 -28 62 -56 75 -43 3 3 -2 20 -10 37 -9 16 -16 40 -16
53 1 13 10 -6 22 -40 13 -40 30 -70 45 -79 13 -8 23 -24 23 -34 0 -21 15 -25
24 -6 3 6 4 -8 1 -33 l-5 -45 13 39 c12 37 31 47 32 16 0 -8 8 -14 18 -14 10
1 33 -18 55 -45 20 -25 41 -49 46 -52 5 -4 6 -11 2 -17 -3 -6 3 -14 15 -17 14
-5 19 -13 16 -26 -3 -10 -1 -17 4 -14 4 3 11 -5 15 -19 12 -50 91 -36 136 25
12 16 57 57 100 90 66 51 80 58 98 49 27 -15 25 -27 -8 -44 -16 -8 -39 -31
-53 -50 -13 -20 -28 -36 -33 -36 -5 0 -18 -7 -28 -17 -36 -33 -18 9 20 45 l37
35 -33 -19 c-42 -24 -47 -30 -65 -81 -10 -29 -11 -45 -4 -52 6 -6 7 -11 3 -11
-5 0 -14 7 -21 17 -13 18 -35 10 -35 -13 0 -8 5 -12 10 -9 21 13 9 -15 -22
-49 -21 -24 -40 -36 -58 -36 -27 0 -50 16 -50 34 0 6 5 4 10 -4 7 -11 10 -7
10 18 0 22 5 32 15 32 8 0 15 4 15 9 0 13 -26 32 -34 24 -13 -13 -36 -11 -36
3 0 8 5 14 11 14 8 0 7 5 -2 16 -8 9 -15 12 -17 6 -5 -15 -32 -3 -32 14 0 17
-12 18 -29 2 -11 -11 -12 -8 -7 12 3 14 3 19 0 13 -3 -7 -17 -13 -31 -13 l-24
0 21 30 21 29 -41 11 c-31 8 -40 16 -40 33 0 18 -2 19 -10 7 -9 -13 -11 -13
-20 0 -5 8 -10 24 -10 36 0 27 -10 36 -26 23 -10 -8 -23 -5 -50 11 l-36 23 21
-41 c23 -44 82 -97 92 -81 6 10 36 -46 64 -121 25 -67 30 -74 53 -85 13 -6 20
-16 17 -24 -3 -7 0 -20 6 -27 6 -7 12 -28 14 -46 2 -18 8 -51 14 -73 18 -69
14 -114 -11 -126 -22 -9 -22 -9 -2 -6 17 4 20 0 17 -14 -3 -11 -14 -19 -25
-19 -11 0 -16 4 -12 11 5 8 1 8 -14 0 -17 -9 -24 -6 -48 22 -25 30 -26 30 -20
7 4 -14 27 -65 51 -115 l44 -90 -37 41 c-20 23 -52 60 -71 83 -54 68 -47 40
10 -41 81 -113 109 -145 168 -194 29 -24 72 -66 95 -92 l41 -47 -47 40 c-45
39 -123 96 -143 104 -5 2 14 -22 43 -53 28 -32 52 -63 52 -69 0 -15 -113 105
-146 156 -14 21 -29 35 -33 32 -12 -7 -88 71 -118 122 -27 47 -42 148 -26 178
8 13 9 5 6 -31 -7 -67 26 -149 84 -214 25 -28 48 -49 50 -46 2 2 -15 30 -40
63 -50 67 -97 177 -67 158 6 -3 10 -16 10 -28 1 -20 1 -21 11 -4 8 14 7 23 -5
36 -18 20 -20 45 -7 87 13 42 22 101 13 88 -4 -6 -16 -14 -27 -18 -11 -3 -44
-26 -74 -50 -30 -25 -58 -43 -62 -40 -19 11 -1 -105 25 -161 39 -84 128 -217
199 -300 95 -109 97 -114 22 -48 -122 107 -173 165 -210 241 -43 88 -69 184
-61 226 6 29 6 30 -11 13 -27 -27 -25 -138 5 -199 25 -53 27 -62 11 -52 -6 3
-22 30 -35 58 -26 55 -31 124 -13 158 10 18 9 20 -6 15 -9 -4 -21 -7 -27 -7
-11 0 -7 -119 6 -155 3 -11 -7 6 -23 39 l-29 58 -17 -31 c-18 -35 -12 -52 30
-91 49 -46 79 -123 69 -178 -9 -48 -24 -29 -64 82 -34 96 -50 108 -50 38 0
-60 23 -126 59 -170 36 -43 150 -142 205 -177 l28 -19 -35 70 c-19 38 -40 87
-47 109 -7 22 -16 45 -21 50 -4 6 -17 33 -29 60 l-21 50 26 -30 c42 -50 94
-140 114 -197 11 -29 22 -61 26 -70 3 -9 39 -42 79 -74 l73 -57 -20 -20 c-19
-19 -19 -20 -2 -30 26 -14 255 -21 458 -12 l179 7 -5 24 c-3 15 3 30 15 41 29
26 58 88 58 123 0 35 36 113 49 106 8 -5 0 -46 -24 -140 l-8 -30 32 23 c31 22
61 68 61 93 0 19 49 116 50 98 0 -8 -11 -46 -24 -85 -13 -38 -22 -72 -21 -74
9 -9 161 118 202 168 25 31 49 58 54 59 5 2 9 11 9 21 0 9 7 26 15 37 14 18
14 17 4 -11 -6 -16 -11 -32 -11 -35 -2 -17 -17 -42 -54 -91 l-43 -56 32 11
c18 7 47 21 65 32 20 14 65 25 125 32 113 14 163 28 170 46 5 12 0 12 -26 5
-44 -13 -167 -27 -161 -18 9 16 107 41 135 35 17 -3 28 -2 24 3 -3 5 3 7 12 5
26 -6 47 11 39 31 -5 14 -14 16 -59 10 -28 -4 -65 -9 -82 -10 -27 -3 -28 -2
-10 11 18 13 17 14 -12 14 l-30 0 10 46 c10 45 11 45 43 39 26 -4 35 -2 43 14
6 11 11 27 11 37 0 14 -2 15 -17 3 -17 -13 -17 -12 0 14 15 23 15 27 3 27 -9
0 -19 -14 -24 -32 -5 -19 -16 -34 -26 -36 -16 -3 -18 2 -14 40 3 23 1 53 -3
65 -25 69 -182 115 -307 88 -37 -7 -87 -21 -111 -30 -24 -8 -47 -13 -50 -9 -3
3 -5 47 -4 97 2 86 4 92 30 113 28 22 28 22 11 57 -14 29 -15 43 -6 74 7 28 7
56 -2 104 -15 77 -10 129 25 262 13 51 26 115 30 142 4 28 13 72 21 99 8 27
14 65 14 83 0 25 4 33 18 33 32 0 82 38 82 63 0 13 13 36 30 52 17 16 30 37
30 46 0 16 31 72 58 104 5 6 12 25 15 43 7 36 -6 71 -43 110 -11 12 -16 22
-11 22 7 0 7 9 1 26 -6 14 -10 41 -10 61 0 36 -53 123 -75 123 -6 0 -18 12
-25 28 -8 15 -26 41 -41 57 -85 94 -97 104 -143 116 -39 10 -50 18 -67 50 -26
52 -79 79 -142 72 -54 -6 -61 -18 -15 -27 46 -9 26 -20 -32 -17 -58 2 -102
-19 -120 -57 -14 -32 -25 -21 -15 15 5 15 7 35 6 43 -1 12 0 12 7 2 7 -10 12
-9 23 4 8 10 9 15 2 11 -6 -4 -14 -3 -18 3 -12 19 -76 40 -93 31 -18 -10 -64
7 -56 20 3 5 1 9 -5 9 -5 0 -12 -4 -16 -9z m106 -38 c13 -16 12 -17 -3 -4 -10
7 -18 15 -18 17 0 8 8 3 21 -13z m-179 -20 c-7 -3 -17 -16 -22 -29 -10 -26
-30 -33 -30 -10 0 16 38 47 55 45 5 0 4 -3 -3 -6z m120 -57 c4 -21 3 -23 -14
-13 -21 14 -23 23 -5 30 6 3 13 6 13 6 1 1 4 -10 6 -23z m211 17 c-7 -2 -21
-2 -30 0 -10 3 -4 5 12 5 17 0 24 -2 18 -5z m-53 -22 c0 -5 -7 -12 -16 -15
-14 -5 -15 -4 -4 9 14 17 20 19 20 6z m-440 -17 c0 -2 -17 -4 -37 -3 -29 0
-33 2 -18 8 18 7 55 4 55 -5z m498 9 c-10 -2 -26 -2 -35 0 -10 3 -2 5 17 5 19
0 27 -2 18 -5z m-464 -19 c3 -8 2 -12 -4 -9 -6 3 -10 10 -10 16 0 14 7 11 14
-7z m-110 -25 c-7 -11 -41 -12 -48 0 -9 13 2 19 29 13 14 -2 22 -8 19 -13z
m-4 -41 c-19 -5 -43 -17 -52 -25 -16 -15 -18 -15 -18 0 0 17 41 35 80 35 20 0
18 -2 -10 -10z m220 1 c12 -8 10 -9 -7 -4 -24 7 -120 -21 -130 -38 -4 -7 0 -8
12 -3 14 5 15 4 7 -7 -6 -7 -16 -24 -22 -38 -9 -22 -10 -21 -5 11 4 33 4 34
-10 16 -18 -24 -19 -16 -4 18 19 41 123 71 159 45z m340 -37 c21 -17 20 -17
-54 -14 -58 3 -82 0 -101 -12 -29 -19 -39 -20 -29 -3 4 6 4 9 0 5 -4 -3 -7 -9
-7 -12 1 -4 -10 -17 -23 -29 -13 -12 -27 -33 -31 -47 -6 -21 -2 -19 19 11 14
20 32 39 41 43 23 8 76 6 100 -4 17 -7 15 -9 -12 -9 -17 -1 -44 -6 -60 -11
-26 -9 -27 -9 -9 5 16 12 17 15 4 15 -16 0 -68 -60 -68 -79 0 -26 -20 -8 -29
26 -22 78 35 111 225 132 7 0 22 -7 34 -17z m125 -12 c-3 -5 -14 -10 -23 -9
-14 0 -13 2 3 9 27 11 27 11 20 0z m-664 -29 c10 -1 17 -61 8 -66 -4 -3 -14 6
-23 20 -15 23 -22 25 -84 23 l-67 -2 57 -3 c38 -3 60 -9 69 -21 11 -14 11 -15
-1 -4 -15 13 -61 17 -59 5 3 -20 -2 -24 -16 -13 -8 7 -22 10 -30 6 -9 -3 -14
-2 -10 3 3 5 -1 11 -7 14 -15 5 -48 -45 -48 -73 0 -11 -4 -20 -10 -20 -13 0
-13 66 0 91 17 31 68 47 145 44 39 -2 73 -4 76 -4z m175 -2 c4 -7 0 -9 -14 -5
-28 9 -70 -13 -75 -38 -3 -19 -4 -19 -11 -3 -12 26 20 57 60 57 18 0 36 -5 40
-11z m-416 -48 c0 -36 -5 -39 -53 -33 -45 5 -44 18 3 44 46 24 50 23 50 -11z
m631 -25 c-18 -6 -39 -20 -47 -31 -11 -15 -14 -16 -14 -3 0 18 17 34 45 41 39
9 49 5 16 -7z m-496 -6 c7 -11 -9 -11 -45 0 -24 8 -24 8 7 9 17 1 35 -3 38 -9z
m-171 -37 c-10 -7 -26 -13 -35 -13 -10 0 -21 -4 -24 -10 -9 -14 29 -12 43 2 9
9 12 7 12 -10 0 -16 -6 -22 -22 -21 -23 0 -71 17 -54 18 6 1 2 7 -9 14 -30 23
-9 37 51 35 48 -2 53 -4 38 -15z m150 -1 c3 -5 -1 -9 -9 -9 -8 0 -15 4 -15 9
0 4 4 8 9 8 6 0 12 -4 15 -8z m-68 -79 c-1 -2 -17 2 -34 8 -25 8 -32 17 -32
37 l0 26 35 -34 c19 -18 33 -35 31 -37z m507 61 c7 -8 -15 -33 -25 -28 -15 9
-52 -16 -140 -95 -51 -47 -81 -72 -67 -55 14 16 45 55 68 86 42 56 76 77 130
79 l26 1 -25 8 -25 8 26 1 c14 1 28 -2 32 -5z m-398 -14 c3 -5 1 -10 -4 -10
-6 0 -11 5 -11 10 0 6 2 10 4 10 3 0 8 -4 11 -10z m146 -49 c-6 -11 -25 -20
-48 -24 -21 -3 -47 -8 -58 -12 -14 -4 -12 -2 5 9 14 8 34 16 45 16 11 0 29 7
39 15 26 20 29 19 17 -4z m459 4 c-7 -8 -17 -15 -23 -15 -20 0 -77 -63 -77
-84 0 -17 2 -18 10 -6 8 12 10 11 10 -8 0 -20 -2 -21 -21 -11 -17 9 -20 17
-15 41 8 41 23 58 71 79 49 23 61 24 45 4z m-815 -12 c-39 -91 -40 -98 -17
-143 12 -24 19 -46 17 -48 -2 -3 -12 12 -21 32 -10 20 -22 36 -27 36 -6 0 -7
21 -3 53 6 40 5 49 -5 40 -6 -6 -14 -35 -17 -63 -3 -35 -8 -48 -14 -38 -10 15
-3 -46 9 -78 6 -17 5 -17 -10 -5 -9 7 -18 25 -18 40 l-2 26 -4 -28 -4 -28 -20
22 c-10 12 -19 17 -19 10 0 -7 -3 -10 -8 -7 -4 2 -6 -13 -4 -35 2 -22 -1 -46
-8 -54 -14 -17 -100 -50 -152 -58 l-36 -5 50 66 c51 68 79 91 111 92 9 0 17 7
17 15 0 8 6 15 14 15 7 0 19 7 26 15 11 13 7 15 -28 15 -31 0 -44 -5 -52 -20
-11 -20 -30 -27 -30 -11 0 5 12 23 26 40 20 24 33 30 60 29 20 -1 39 -8 45
-17 9 -14 10 -14 5 1 -3 11 0 15 7 12 7 -2 21 10 31 26 21 36 16 49 -8 24 -9
-9 -20 -14 -23 -10 -10 10 19 36 41 36 11 0 28 5 36 10 25 16 43 12 35 -7z
m551 6 c-14 -9 -16 -13 -5 -20 10 -6 7 -13 -14 -29 -20 -16 -27 -31 -29 -58
-1 -36 -1 -36 -7 8 -6 42 -7 44 -19 23 -7 -12 -13 -33 -14 -47 -1 -13 -6 -22
-10 -20 -4 3 -8 -4 -8 -15 0 -12 -6 -21 -14 -21 -11 0 -13 7 -6 28 15 53 31
78 66 101 18 13 34 29 34 36 0 13 15 23 35 24 6 0 2 -4 -9 -10z m564 -4 c11
-13 8 -15 -19 -15 -18 0 -45 -7 -62 -15 -29 -16 -29 -15 -17 5 22 34 78 49 98
25z m-1008 -22 c24 -21 23 -36 -1 -21 -11 7 -17 16 -15 20 8 13 -23 9 -34 -4
-20 -26 -23 -56 -6 -72 9 -10 14 -20 10 -23 -12 -13 -30 17 -30 51 0 59 38 84
76 49z m108 -19 c0 -2 -12 -4 -26 -4 -14 0 -23 4 -20 9 6 8 46 4 46 -5z m130
-4 c-8 -5 -24 -10 -35 -10 -11 0 -27 5 -35 10 -11 7 -1 10 35 10 36 0 46 -3
35 -10z m432 -16 c-12 -8 -19 -20 -16 -26 4 -7 2 -8 -4 -4 -14 8 0 42 20 49
23 8 22 -3 0 -19z m372 17 c3 -4 -5 -6 -18 -4 -13 3 -44 -4 -68 -15 -34 -15
-49 -29 -66 -63 -11 -24 -21 -36 -22 -26 0 27 26 73 56 96 27 21 107 30 118
12z m-304 -5 c0 -9 -30 -14 -35 -6 -4 6 3 10 14 10 12 0 21 -2 21 -4z m-565
-33 c-47 -10 -50 -14 -20 -28 18 -8 23 -14 13 -14 -27 -2 -31 -20 -6 -30 13
-6 18 -10 12 -10 -7 -1 -24 6 -40 14 -15 8 -31 12 -34 9 -9 -10 33 -34 59 -35
24 0 24 -1 6 -9 -30 -13 -75 -12 -80 3 -13 40 -10 52 16 52 21 0 25 3 21 18
-6 23 14 37 48 36 20 -1 21 -2 5 -6z m858 0 c-7 -2 -19 -2 -25 0 -7 3 -2 5 12
5 14 0 19 -2 13 -5z m-606 -25 c-3 -8 -6 -5 -6 6 -1 11 2 17 5 13 3 -3 4 -12
1 -19z m83 3 c-8 -5 -26 -12 -40 -15 l-25 -7 25 15 c14 9 32 15 40 15 13 0 13
-1 0 -8z m-220 -41 c-11 -21 -20 -55 -20 -74 0 -19 -5 -38 -11 -42 -7 -4 -9 0
-5 14 4 12 1 26 -8 34 -16 17 -8 37 32 81 34 36 36 34 12 -13z m-290 10 c0 -5
-4 -10 -9 -10 -6 0 -13 5 -16 10 -3 6 1 10 9 10 9 0 16 -4 16 -10z m438 -15
c-3 -3 -9 2 -12 12 -6 14 -5 15 5 6 7 -7 10 -15 7 -18z m-574 -28 c11 -23 20
-47 20 -54 1 -7 10 -19 21 -27 16 -12 17 -15 4 -16 -8 0 -29 15 -47 33 -25 26
-31 40 -30 70 1 20 4 37 7 37 3 0 15 -19 25 -43z m83 -15 c-10 -5 -47 37 -47
52 0 6 12 -3 28 -19 15 -17 23 -32 19 -33z m633 46 c13 4 13 3 1 -11 -12 -15
-16 -15 -42 -1 -37 18 -37 25 -1 15 15 -4 34 -6 42 -3z m218 2 c-54 -10 -81
-37 -76 -77 2 -17 0 -29 -4 -27 -10 6 -10 55 0 70 16 23 58 44 87 43 28 -1 28
-2 -7 -9z m-423 -31 c-4 -5 -15 -14 -26 -20 -20 -10 -20 -10 -4 15 15 23 44
28 30 5z m95 11 c-20 -13 -33 -13 -25 0 3 6 14 10 23 10 15 0 15 -2 2 -10z
m361 -40 c-13 -11 -31 -20 -40 -20 -21 0 -47 17 -39 25 3 4 15 1 26 -6 17 -10
24 -10 44 4 32 22 38 20 9 -3z m-781 -10 c0 -5 -7 -10 -15 -10 -8 0 -20 -10
-26 -22 -11 -20 -10 -21 2 -11 27 22 68 33 75 21 4 -7 3 -8 -4 -4 -8 5 -12 0
-12 -13 0 -12 -7 -21 -15 -21 -8 0 -15 5 -15 12 0 6 -10 2 -23 -10 -38 -36
-44 -9 -9 46 14 22 42 30 42 12z m102 -13 c-12 -13 -22 -36 -22 -53 0 -22 -3
-26 -10 -14 -8 13 -10 13 -10 -1 0 -9 -7 -20 -16 -23 -12 -5 -14 -1 -9 17 l6
22 -20 -24 c-12 -13 -21 -18 -21 -12 0 17 92 110 109 111 10 0 8 -7 -7 -23z
m933 14 c-6 -5 -21 -12 -35 -15 l-25 -7 25 15 c28 17 50 21 35 7z m-857 -33
c7 -7 12 -18 12 -25 0 -11 -5 -11 -20 -3 -11 6 -20 17 -20 25 0 18 12 19 28 3z
m-45 -14 c-4 -11 -8 -12 -13 -4 -6 9 -9 9 -13 -1 -4 -10 -6 -9 -6 4 -1 11 6
17 19 17 14 0 18 -5 13 -16z m587 -4 c0 -5 -2 -10 -4 -10 -3 0 -8 5 -11 10 -3
6 -1 10 4 10 6 0 11 -4 11 -10z m-890 -51 c15 -28 5 -23 -15 7 -9 15 -12 23
-6 20 6 -4 16 -16 21 -27z m575 17 c11 -7 36 -17 55 -21 19 -4 52 -16 74 -27
21 -11 35 -15 31 -9 -4 7 4 11 19 11 39 0 31 -16 -21 -47 -35 -20 -43 -29 -30
-31 11 -2 29 6 42 18 20 19 23 19 29 5 3 -9 6 -25 6 -35 0 -10 6 -21 13 -23 8
-4 6 -6 -4 -6 -12 -1 -15 -8 -12 -25 5 -23 1 -25 -43 -31 -125 -15 -217 -63
-279 -143 -17 -23 -17 -25 2 -50 26 -35 46 -38 94 -16 34 15 47 16 92 6 28 -7
61 -13 72 -15 16 -3 15 -5 -9 -12 -18 -5 -42 -3 -65 5 -62 22 -68 23 -48 7 10
-8 17 -23 15 -34 -2 -13 3 -18 22 -18 19 0 25 -5 26 -22 1 -18 -4 -23 -22 -23
-24 0 -33 -7 -77 -60 l-27 -32 -56 43 c-31 24 -63 54 -72 67 -17 26 -32 117
-22 129 4 5 12 27 19 50 7 25 30 61 57 90 43 45 45 50 38 88 -13 71 -9 102 20
139 30 40 34 42 61 22z m-605 -17 c0 -6 -4 -7 -10 -4 -5 3 -10 11 -10 16 0 6
5 7 10 4 6 -3 10 -11 10 -16z m111 -48 c-9 -16 -7 -18 14 -18 14 0 28 3 31 8
3 5 11 9 17 9 7 0 4 -5 -5 -11 -22 -12 -24 -31 -3 -23 8 4 22 4 30 0 13 -5 13
-8 -2 -26 -13 -14 -19 -16 -25 -7 -8 13 -12 -3 -9 -32 2 -7 -2 -10 -9 -6 -6 4
-9 17 -6 29 4 15 -1 26 -15 35 -27 16 -32 10 -19 -24 13 -34 8 -41 -14 -19 -9
9 -19 15 -21 13 -7 -8 8 -58 16 -53 5 3 9 0 9 -5 0 -20 -20 -11 -32 14 -9 19
-8 31 3 53 7 15 15 31 17 35 2 4 -2 6 -8 5 -7 -2 -15 4 -17 12 -3 11 -2 12 4
2 7 -10 14 -8 28 8 23 25 29 26 16 1z m-74 -6 c14 -14 13 -15 -13 -9 -39 9
-54 24 -25 24 12 0 29 -7 38 -15z m336 -15 c5 -4 -13 -6 -40 -3 -48 4 -48 4
-20 -12 32 -19 36 -28 6 -16 -24 8 -89 -16 -89 -34 0 -15 13 -30 35 -43 17
-10 17 -11 3 -12 -9 0 -20 5 -23 11 -4 6 -14 8 -23 4 -9 -3 -13 -3 -10 0 4 4
3 18 -2 31 -8 21 -6 26 24 38 19 8 40 24 46 36 10 19 17 21 48 15 21 -4 41
-10 45 -15z m704 -24 c3 -3 -13 -8 -36 -12 -30 -5 -39 -10 -32 -17 6 -6 10
-34 10 -61 l-1 -51 -9 53 c-5 29 -14 62 -19 72 -6 10 -10 22 -10 25 0 7 89 -1
97 -9z m-812 -54 c-3 -3 -11 0 -18 7 -9 10 -8 11 6 5 10 -3 15 -9 12 -12z
m831 -7 c-19 -14 -18 -15 13 -21 40 -8 24 -21 -33 -28 -32 -4 -36 -2 -31 14 3
10 1 21 -5 25 -19 12 1 25 38 25 35 -1 36 -2 18 -15z m-882 -54 c-2 -3 -12 3
-22 13 -16 17 -16 18 5 5 12 -7 20 -15 17 -18z m-158 -16 c-11 -8 -22 -12 -25
-9 -6 6 19 24 34 24 6 -1 1 -7 -9 -15z m240 0 c-19 -14 -19 -16 -3 -27 16 -12
15 -13 -7 -13 -16 0 -22 4 -18 15 8 23 23 40 36 40 6 0 2 -7 -8 -15z m-149
-11 c0 -8 -3 -12 -5 -9 -3 3 -12 -1 -20 -8 -13 -10 -15 -9 -9 6 3 9 3 17 -2
17 -13 0 -32 -26 -24 -33 3 -4 -1 -7 -11 -7 -15 0 -15 2 -1 24 18 27 72 34 72
10z m33 -4 c0 -5 -2 -10 -4 -10 -3 0 -8 5 -11 10 -3 6 -1 10 4 10 6 0 11 -4
11 -10z m100 -61 c0 -6 -4 -7 -10 -4 -5 3 -10 11 -10 16 0 6 5 7 10 4 6 -3 10
-11 10 -16z m457 15 c-3 -3 -12 -4 -19 -1 -8 3 -5 6 6 6 11 1 17 -2 13 -5z
m257 -37 c8 -13 16 -65 20 -122 3 -55 11 -117 17 -138 9 -33 8 -42 -7 -58 -16
-18 -19 -18 -35 -3 -16 14 -21 14 -62 -4 -41 -18 -46 -19 -52 -4 -3 9 3 28 15
45 27 36 21 44 -13 16 -15 -11 -31 -17 -37 -14 -5 3 -10 -2 -10 -12 0 -15 -2
-16 -10 -3 -5 8 -10 11 -11 5 0 -5 -4 -2 -8 8 -6 17 -8 17 -33 -2 -14 -12 -28
-21 -31 -21 -15 0 4 35 36 68 20 20 49 63 65 94 18 35 43 67 65 82 l35 24 7
-94 c4 -52 5 -103 2 -114 -3 -12 -1 -18 5 -14 10 6 8 103 -5 256 -3 43 -2 46
15 37 10 -5 24 -20 32 -32z m-319 8 l-30 -25 46 21 c30 14 54 19 65 14 16 -6
12 -9 -21 -19 -22 -7 -59 -22 -82 -34 -61 -31 -63 -28 -13 23 24 25 49 45 55
45 5 0 -3 -11 -20 -25z m505 0 c0 -8 -73 -36 -78 -30 -3 2 10 11 29 19 36 16
49 19 49 11z m-436 -40 c-10 -8 -26 -14 -34 -14 -9 0 -4 6 10 14 33 19 49 19
24 0z m-590 -41 c3 -8 2 -12 -4 -9 -6 3 -10 -2 -11 -12 0 -11 -3 -13 -6 -5 -5
13 2 42 11 42 2 0 7 -7 10 -16z m127 -61 c0 -5 1 -25 3 -46 2 -20 11 -46 21
-57 20 -22 8 -27 -17 -7 -18 13 -42 92 -33 107 7 12 25 13 26 3z m49 -64 c0 8
3 12 6 8 3 -3 3 -11 -1 -17 -9 -15 -35 7 -35 29 1 11 5 8 15 -9 8 -14 14 -19
15 -11z m630 -223 c0 -6 -5 -3 -11 7 -15 26 -25 21 -53 -25 -14 -24 -26 -36
-26 -28 -1 11 -6 8 -20 -9 -11 -13 -20 -19 -20 -15 0 5 23 34 51 64 48 51 52
53 65 35 8 -10 14 -24 14 -29z m-44 -34 c-14 -15 -15 -13 -3 17 8 23 13 28 15
16 2 -10 -3 -25 -12 -33z m-529 -8 c-3 -3 -12 -4 -19 -1 -8 3 -5 6 6 6 11 1
17 -2 13 -5z m33 -68 c0 -11 -19 -15 -25 -6 -3 5 1 10 9 10 9 0 16 -2 16 -4z
m60 -10 c9 -12 8 -15 -8 -13 -12 0 -18 6 -15 14 6 16 8 16 23 -1z m436 -77 c4
-7 -2 -16 -12 -22 -10 -6 -32 -23 -48 -39 -23 -24 -27 -35 -24 -66 3 -20 8
-46 12 -57 7 -19 7 -19 -7 -2 -13 16 -16 16 -30 2 -18 -17 -32 -4 -23 22 5 12
9 13 20 4 12 -10 15 -2 18 44 l3 56 -32 -35 c-25 -27 -33 -31 -33 -18 0 21 37
58 95 95 46 30 51 31 61 16z m-439 -46 c-3 -10 -5 -4 -5 12 0 17 2 24 5 18 2
-7 2 -21 0 -30z m550 5 c0 -13 -1 -17 -4 -10 -3 9 -14 2 -30 -20 -14 -18 -23
-25 -19 -15 3 10 6 22 6 27 0 10 29 40 39 40 4 0 7 -10 8 -22z m-119 -29 c-14
-19 -23 -44 -23 -69 l0 -39 -16 26 c-20 30 -16 47 19 86 35 37 48 34 20 -4z
m48 -10 c-12 -28 -16 -31 -21 -16 -5 11 -1 25 10 37 25 27 28 20 11 -21z
m-300 -31 c-13 -18 -16 -19 -21 -6 -4 9 -1 27 5 39 11 20 13 20 22 6 6 -12 4
-24 -6 -39z m39 31 c11 -17 -1 -21 -15 -4 -8 9 -8 15 -2 15 6 0 14 -5 17 -11z
m-85 -29 c8 -5 11 -12 8 -16 -4 -3 -14 1 -23 10 -18 17 -9 21 15 6z m10 -55
c-7 -8 -16 -15 -21 -15 -5 0 -1 8 9 18 20 22 31 19 12 -3z m430 0 c0 -14 -2
-25 -4 -25 -2 0 -6 11 -8 25 -3 14 -1 25 3 25 5 0 9 -11 9 -25z m-476 -14 c-2
-3 -12 3 -22 13 -16 17 -16 18 5 5 12 -7 20 -15 17 -18z m426 -29 c0 -5 -11
-14 -25 -20 -20 -9 -25 -9 -25 2 0 13 14 20 43 25 4 0 7 -3 7 -7z m-836 -78
c-11 -62 48 -162 163 -275 92 -91 203 -218 203 -234 0 -4 -20 10 -45 31 -24
22 -55 48 -68 59 -48 40 -205 242 -235 300 -34 69 -39 89 -29 128 11 40 19 33
11 -9z m735 10 c-15 -18 -22 -13 -13 10 3 9 10 13 16 10 5 -3 4 -12 -3 -20z
m-116 -284 c-31 -55 -58 -98 -59 -97 -9 8 54 152 65 149 7 -1 10 2 7 7 -5 7
29 41 41 41 1 0 -23 -45 -54 -100z m135 42 c-49 -45 -194 -169 -223 -192 -11
-8 27 32 85 89 93 92 169 154 178 146 2 -2 -16 -21 -40 -43z m-849 -17 c0 -5
-4 -3 -9 5 -5 8 -9 22 -9 30 0 16 17 -16 18 -35z m1021 41 c0 -2 -8 -10 -17
-17 -16 -13 -17 -12 -4 4 13 16 21 21 21 13z m-81 -69 c-43 -40 -155 -123
-134 -99 15 17 169 141 175 141 3 0 -16 -19 -41 -42z m51 0 c0 -2 -15 -16 -32
-33 l-33 -29 29 33 c28 30 36 37 36 29z m-70 -60 c0 -2 -15 -16 -32 -33 l-33
-29 29 33 c28 30 36 37 36 29z m-744 -48 c3 -6 -5 -3 -20 6 -14 10 -26 19 -26
22 0 7 39 -17 46 -28z m1303 -15 c-13 -14 -25 -20 -27 -14 -5 15 17 40 36 40
12 0 10 -6 -9 -26z m-1294 -34 c68 -47 95 -85 94 -133 0 -33 -2 -38 -9 -22 -5
11 -11 33 -15 49 -6 29 -44 72 -100 113 -45 33 -20 27 30 -7z"/>
<path d="M1608 3469 c-21 -11 -38 -24 -38 -29 0 -5 20 3 45 17 67 37 60 48 -7
12z"/>
<path d="M1790 3527 c0 -8 10 -22 21 -33 l22 -19 -17 33 c-18 34 -26 40 -26
19z"/>
<path d="M2685 2959 c-4 -6 -5 -12 -2 -15 2 -3 7 2 10 11 7 17 1 20 -8 4z"/>
<path d="M2470 4206 c0 -2 7 -7 16 -10 8 -3 12 -2 9 4 -6 10 -25 14 -25 6z"/>
<path d="M2100 4140 c-13 -8 -13 -10 2 -10 9 0 20 5 23 10 8 13 -5 13 -25 0z"/>
<path d="M1657 3917 c-18 -8 -36 -30 -52 -62 -13 -27 -24 -43 -24 -34 -1 8 5
21 12 28 6 8 -3 3 -20 -9 -33 -24 -33 -24 -27 -90 5 -52 3 -73 -10 -99 -18
-35 -17 -51 2 -28 7 8 26 40 43 73 134 253 131 245 76 221z"/>
<path d="M1502 3745 c-7 -15 -11 -30 -8 -32 7 -7 28 36 24 49 -2 6 -9 -2 -16
-17z"/>
<path d="M3462 3730 c0 -14 2 -19 5 -12 2 6 2 18 0 25 -3 6 -5 1 -5 -13z"/>
<path d="M1506 3665 c-3 -9 -10 -14 -15 -11 -12 8 -19 -24 -13 -62 7 -53 27
-40 22 15 -1 12 4 32 10 43 6 12 10 24 7 26 -2 3 -7 -2 -11 -11z"/>
<path d="M3511 3594 c0 -11 3 -14 6 -6 3 7 2 16 -1 19 -3 4 -6 -2 -5 -13z"/>
<path d="M1370 3570 c-1 -3 -4 -16 -6 -30 -3 -18 -2 -22 7 -13 6 6 9 19 6 29
-3 11 -6 17 -7 14z"/>
<path d="M1435 3479 c-4 -6 -5 -12 -2 -15 2 -3 7 2 10 11 7 17 1 20 -8 4z"/>
<path d="M1352 3460 c0 -14 2 -19 5 -12 2 6 2 18 0 25 -3 6 -5 1 -5 -13z"/>
<path d="M3440 3430 c0 -5 5 -10 11 -10 5 0 7 5 4 10 -3 6 -8 10 -11 10 -2 0
-4 -4 -4 -10z"/>
<path d="M1242 3365 c0 -16 2 -22 5 -12 2 9 2 23 0 30 -3 6 -5 -1 -5 -18z"/>
<path d="M1549 3307 c-92 -56 -98 -60 -102 -79 -4 -13 7 -8 37 17 46 38 67 46
45 18 -13 -16 -12 -17 3 -4 10 7 15 17 12 22 -3 5 0 10 5 10 6 1 16 2 21 3 6
0 10 5 9 9 0 5 8 15 18 23 32 24 8 15 -48 -19z"/>
<path d="M1233 3280 c0 -25 2 -35 4 -22 2 12 2 32 0 45 -2 12 -4 2 -4 -23z"/>
<path d="M1273 3270 c0 -25 2 -35 4 -22 2 12 2 32 0 45 -2 12 -4 2 -4 -23z"/>
<path d="M3722 3245 c0 -16 2 -22 5 -12 2 9 2 23 0 30 -3 6 -5 -1 -5 -18z"/>
<path d="M1222 3195 c0 -16 2 -22 5 -12 2 9 2 23 0 30 -3 6 -5 -1 -5 -18z"/>
<path d="M1130 3103 c0 -36 23 -138 33 -148 7 -7 8 -4 4 8 -4 10 -12 48 -17
85 -11 67 -20 92 -20 55z"/>
<path d="M3541 3111 c-8 -5 -9 -11 -3 -15 5 -3 12 1 16 9 6 17 6 18 -13 6z"/>
<path d="M1380 3065 c-8 -9 -8 -15 -2 -15 12 0 26 19 19 26 -2 2 -10 -2 -17
-11z"/>
<path d="M3816 3063 c-6 -14 -5 -15 5 -6 7 7 10 15 7 18 -3 3 -9 -2 -12 -12z"/>
<path d="M1170 3041 c0 -6 4 -13 10 -16 6 -3 7 1 4 9 -7 18 -14 21 -14 7z"/>
<path d="M3660 3043 c0 -6 8 -17 18 -24 16 -13 16 -13 2 6 -8 11 -16 22 -17
24 -2 2 -3 0 -3 -6z"/>
<path d="M3781 2960 c-1 -8 -4 -26 -7 -40 -5 -22 -4 -23 6 -7 6 10 9 28 7 40
-2 12 -5 15 -6 7z"/>
<path d="M1222 2940 c0 -14 2 -19 5 -12 2 6 2 18 0 25 -3 6 -5 1 -5 -13z"/>
<path d="M1040 2923 c0 -5 12 -20 28 -34 l27 -24 -25 30 c-14 17 -26 32 -27
34 -2 2 -3 0 -3 -6z"/>
<path d="M1937 2893 c-13 -13 43 -82 68 -83 5 0 -8 17 -28 38 -21 21 -34 41
-31 45 4 4 5 7 2 7 -2 0 -8 -3 -11 -7z"/>
<path d="M3877 2868 c-26 -35 -46 -70 -31 -53 5 6 25 27 43 48 19 20 30 37 23
37 -6 0 -22 -15 -35 -32z"/>
<path d="M1232 2865 c0 -16 2 -22 5 -12 2 9 2 23 0 30 -3 6 -5 -1 -5 -18z"/>
<path d="M1066 2850 c3 -14 10 -29 15 -34 14 -16 10 6 -7 34 l-15 25 7 -25z"/>
<path d="M3580 2841 c0 -6 4 -13 10 -16 6 -3 7 1 4 9 -7 18 -14 21 -14 7z"/>
<path d="M1347 2781 c-26 -28 -47 -52 -47 -55 0 -3 9 -4 19 -3 11 0 17 5 14
10 -3 5 12 26 33 48 21 21 35 41 32 44 -3 3 -26 -17 -51 -44z"/>
<path d="M1150 2786 c0 -8 4 -17 9 -20 5 -4 7 3 4 14 -6 23 -13 26 -13 6z"/>
<path d="M3620 2795 c0 -13 20 -35 32 -35 4 0 8 5 8 12 0 6 -3 8 -7 5 -3 -4
-12 1 -19 11 -7 9 -14 12 -14 7z"/>
<path d="M3666 2787 c3 -10 9 -15 12 -12 3 3 0 11 -7 18 -10 9 -11 8 -5 -6z"/>
<path d="M3726 2747 c3 -10 9 -15 12 -12 3 3 0 11 -7 18 -10 9 -11 8 -5 -6z"/>
<path d="M2200 2709 c0 -5 5 -7 10 -4 6 3 10 8 10 11 0 2 -4 4 -10 4 -5 0 -10
-5 -10 -11z"/>
<path d="M1286 2687 c-3 -14 -9 -33 -13 -44 -6 -16 -5 -16 8 -3 22 24 41 61
35 68 -3 3 -6 -1 -6 -9 0 -11 -2 -12 -9 -1 -6 10 -10 7 -15 -11z"/>
<path d="M2166 2694 c-9 -24 -7 -31 10 -38 23 -9 64 4 64 19 0 10 -10 12 -35
8 -30 -5 -34 -3 -29 11 3 9 4 16 1 16 -3 0 -8 -7 -11 -16z"/>
<path d="M3722 2680 c0 -14 2 -19 5 -12 2 6 2 18 0 25 -3 6 -5 1 -5 -13z"/>
<path d="M1211 2662 c-11 -26 -11 -35 -1 -47 25 -30 50 -12 50 36 0 30 -20 12
-22 -19 0 -16 -3 -8 -7 18 l-6 45 -14 -33z"/>
<path d="M3900 2659 c-22 -18 -22 -19 -3 -10 12 6 25 16 28 21 9 15 3 12 -25
-11z"/>
<path d="M1040 2638 c0 -20 37 -71 44 -60 3 5 -3 17 -14 27 -11 10 -20 23 -20
28 0 6 9 2 20 -8 11 -10 20 -15 20 -10 0 9 -31 34 -42 35 -5 0 -8 -6 -8 -12z"/>
<path d="M2245 2640 c-3 -5 -1 -10 4 -10 6 0 11 5 11 10 0 6 -2 10 -4 10 -3 0
-8 -4 -11 -10z"/>
<path d="M1368 2587 c-45 -45 -69 -113 -53 -150 14 -33 28 -25 15 9 -12 29 19
106 58 147 37 39 19 34 -20 -6z"/>
<path d="M1188 2561 c20 -35 22 -35 15 2 -3 15 -11 27 -19 27 -10 0 -9 -7 4
-29z"/>
<path d="M1402 2506 c-12 -32 -22 -68 -21 -79 0 -12 11 9 25 48 30 85 26 110
-4 31z"/>
<path d="M1165 2539 c-4 -6 -5 -12 -2 -15 2 -3 7 2 10 11 7 17 1 20 -8 4z"/>
<path d="M1126 2517 c3 -10 9 -15 12 -12 3 3 0 11 -7 18 -10 9 -11 8 -5 -6z"/>
<path d="M1201 2504 c6 -7 16 -11 21 -8 11 7 3 17 -18 20 -12 2 -13 -1 -3 -12z"/>
<path d="M1367 2473 c-7 -26 -11 -52 -9 -58 3 -5 11 15 18 45 15 69 10 77 -9
13z"/>
<path d="M2399 2463 c-13 -21 -27 -43 -31 -50 -6 -9 0 -9 23 -3 36 11 33 8 48
37 14 27 14 33 1 33 -5 0 -10 -6 -10 -13 0 -8 -9 -22 -20 -32 -11 -10 -20 -15
-20 -11 0 10 33 60 45 68 6 5 6 8 -2 8 -6 0 -22 -17 -34 -37z"/>
<path d="M3566 2477 c3 -10 9 -15 12 -12 3 3 0 11 -7 18 -10 9 -11 8 -5 -6z"/>
<path d="M3664 2475 c-3 -8 -4 -20 -2 -27 3 -7 7 -1 10 15 6 29 1 36 -8 12z"/>
<path d="M1341 2464 c0 -11 3 -14 6 -6 3 7 2 16 -1 19 -3 4 -6 -2 -5 -13z"/>
<path d="M3830 2400 c-8 -5 -10 -10 -5 -10 6 0 17 5 25 10 8 5 11 10 5 10 -5
0 -17 -5 -25 -10z"/>
<path d="M1522 2335 c0 -16 2 -22 5 -12 2 9 2 23 0 30 -3 6 -5 -1 -5 -18z"/>
<path d="M1492 2303 c-1 -23 -5 -50 -8 -60 -5 -17 -5 -17 6 0 6 9 9 36 7 60
l-4 42 -1 -42z"/>
<path d="M3568 2313 c-20 -5 -23 -18 -8 -28 6 -3 10 0 10 7 0 9 3 9 10 -2 8
-12 10 -11 10 8 0 12 -1 21 -2 21 -2 -1 -11 -3 -20 -6z"/>
<path d="M3520 2276 c0 -8 -7 -16 -15 -20 -12 -4 -13 -9 -4 -24 11 -18 13 -18
37 5 14 13 22 26 19 30 -4 3 -7 2 -7 -4 0 -6 -7 -13 -15 -17 -12 -4 -14 0 -9
19 3 14 3 25 0 25 -3 0 -6 -6 -6 -14z"/>
<path d="M1300 2228 c0 -9 5 -20 10 -23 13 -8 13 5 0 25 -8 13 -10 13 -10 -2z"/>
<path d="M3630 2149 c0 -5 5 -7 10 -4 6 3 10 8 10 11 0 2 -4 4 -10 4 -5 0 -10
-5 -10 -11z"/>
<path d="M2101 2085 c0 -5 6 -19 14 -29 8 -11 15 -15 15 -10 0 6 -7 19 -15 30
-8 10 -14 15 -14 9z"/>
<path d="M1620 2042 c0 -15 -5 -33 -12 -40 -9 -9 -8 -12 5 -12 13 0 17 9 17
40 0 22 -2 40 -5 40 -3 0 -5 -13 -5 -28z"/>
<path d="M3630 1976 c7 -7 13 -7 20 0 6 6 3 10 -10 10 -13 0 -16 -4 -10 -10z"/>
<path d="M1630 1875 c13 -14 26 -25 28 -25 3 0 -5 11 -18 25 -13 14 -26 25
-28 25 -3 0 5 -11 18 -25z"/>
<path d="M1736 1874 c-3 -8 -10 -13 -14 -10 -5 3 -9 -1 -9 -9 0 -8 3 -12 7
-10 3 2 6 -12 6 -31 0 -23 -3 -31 -10 -24 -14 14 -26 12 -26 -4 0 -19 -30 -29
-47 -15 -8 7 -40 11 -76 10 -34 -1 -77 3 -94 8 -21 6 -33 6 -33 0 0 -14 37
-25 105 -32 106 -11 153 -27 81 -27 -22 0 -35 -4 -31 -10 3 -5 32 -10 62 -10
42 0 65 -6 90 -22 51 -36 57 -77 7 -58 -16 7 -32 7 -44 0 -10 -5 -31 -10 -47
-10 -15 -1 -41 -7 -58 -15 l-30 -13 35 -2 c77 -3 123 -12 167 -31 63 -27 50
-32 -21 -8 -75 26 -98 19 -26 -8 49 -19 142 -41 113 -27 -7 3 -10 11 -7 19 4
8 -8 17 -33 25 -36 12 -66 30 -49 30 38 0 147 -35 162 -52 19 -21 19 -21 -3
-9 -33 17 -52 14 -50 -9 1 -12 7 -18 14 -16 7 3 15 1 18 -4 3 -5 -3 -11 -12
-13 -10 -3 -4 -5 14 -6 17 0 35 -5 38 -11 4 -6 17 -5 34 5 28 14 68 14 113 -1
21 -7 20 -9 -17 -21 l-40 -13 38 6 c26 3 46 0 62 -10 41 -27 51 20 10 52 -13
11 -21 23 -17 27 4 5 1 5 -6 1 -7 -4 -27 1 -45 12 -17 10 -57 29 -88 41 -61
24 -175 120 -199 167 -8 16 -22 41 -32 56 -20 29 -23 42 -8 33 6 -4 10 8 10
29 0 39 -4 45 -14 20z"/>
<path d="M2044 1857 c16 -20 30 -37 33 -37 7 0 -36 58 -49 66 -7 4 1 -9 16
-29z"/>
<path d="M3538 1883 c7 -3 16 -2 19 1 4 3 -2 6 -13 5 -11 0 -14 -3 -6 -6z"/>
<path d="M1350 1872 c0 -16 83 -44 139 -48 31 -3 63 -6 71 -9 11 -3 16 2 17
16 2 23 -3 25 -67 33 -33 4 -40 3 -25 -4 28 -14 -71 -5 -107 9 -16 6 -28 7
-28 3z"/>
<path d="M3620 1870 c8 -5 20 -10 25 -10 6 0 3 5 -5 10 -8 5 -19 10 -25 10 -5
0 -3 -5 5 -10z"/>
<path d="M3530 1750 c-13 -8 -13 -10 2 -10 9 0 20 5 23 10 8 13 -5 13 -25 0z"/>
<path d="M3320 1720 c-11 -8 -2 -10 32 -7 26 2 51 6 54 10 11 11 -69 8 -86 -3z"/>
<path d="M3328 1623 c6 -2 18 -2 25 0 6 3 1 5 -13 5 -14 0 -19 -2 -12 -5z"/>
<path d="M3400 1599 c0 -5 5 -7 10 -4 6 3 10 8 10 11 0 2 -4 4 -10 4 -5 0 -10
-5 -10 -11z"/>
<path d="M3298 1563 c7 -3 16 -2 19 1 4 3 -2 6 -13 5 -11 0 -14 -3 -6 -6z"/>
<path d="M3157 1553 c-18 -4 -17 -6 3 -20 17 -12 24 -13 33 -4 9 9 7 11 -8 6
-14 -5 -13 -2 5 9 22 13 23 15 5 14 -11 0 -28 -2 -38 -5z"/>
<path d="M2944 1525 c-10 -8 -14 -15 -8 -15 6 0 17 7 24 15 16 19 9 19 -16 0z"/>
<path d="M3095 1528 c-33 -19 -59 -47 -51 -55 4 -5 13 -1 19 7 7 9 25 25 41
38 30 23 25 29 -9 10z"/>
<path d="M2947 1473 c-13 -13 -7 -33 11 -32 9 0 12 3 5 5 -7 3 -9 12 -6 20 5
15 1 18 -10 7z"/>
<path d="M2990 1459 c0 -5 5 -7 10 -4 6 3 10 8 10 11 0 2 -4 4 -10 4 -5 0 -10
-5 -10 -11z"/>
</g>
</svg>
